<?xml version="1.0" encoding="UTF-8" standalone="no"?>
<svg
   xmlns:dc="http://purl.org/dc/elements/1.1/"
   xmlns:cc="http://creativecommons.org/ns#"
   xmlns:rdf="http://www.w3.org/1999/02/22-rdf-syntax-ns#"
   xmlns:svg="http://www.w3.org/2000/svg"
   xmlns="http://www.w3.org/2000/svg"
   xmlns:sodipodi="http://sodipodi.sourceforge.net/DTD/sodipodi-0.dtd"
   xmlns:inkscape="http://www.inkscape.org/namespaces/inkscape"
   width="250mm"
   height="200mm"
   viewBox="0 0 250 200"
   version="1.1"
   id="svg8"
   inkscape:version="1.0.1 (3bc2e813f5, 2020-09-07)"
   sodipodi:docname="friends on cliff - Copy.svg"
   inkscape:export-filename="C:\Users\erikl\Desktop\Projects\Graphic Art\vector\friends on a cliff.png"
   inkscape:export-xdpi="63.063702"
   inkscape:export-ydpi="63.063702">
  <defs
     id="defs2">
    <clipPath
       clipPathUnits="userSpaceOnUse"
       id="clipPath2091">
      <path
         style="fill:#000000;stroke:none;stroke-width:0.264583px;stroke-linecap:butt;stroke-linejoin:miter;stroke-opacity:1"
         d="M 151.73141,271.07163 C 139.36865,271.23321 28.656402,258.50736 27.641836,255.19664 26.627272,251.88592 22.119169,115.93123 22.376762,108.60645 22.634355,101.28167 145.33117,81.829214 160.92898,81.539178 c 15.5978,-0.290036 127.04839,34.248562 127.11927,38.970302 0.0709,4.72174 -10.19167,126.42376 -10.64752,131.75794 -0.45588,5.33418 -113.30656,18.64263 -125.66932,18.80421 z"
         id="path2093"
         sodipodi:nodetypes="zzzzzzz" />
    </clipPath>
    <clipPath
       clipPathUnits="userSpaceOnUse"
       id="clipPath2095">
      <path
         style="fill:#000000;stroke:none;stroke-width:0.264583px;stroke-linecap:butt;stroke-linejoin:miter;stroke-opacity:1"
         d="M 151.73141,271.07163 C 139.36865,271.23321 28.656402,258.50736 27.641836,255.19664 26.627272,251.88592 22.119169,115.93123 22.376762,108.60645 22.634355,101.28167 145.33117,81.829214 160.92898,81.539178 c 15.5978,-0.290036 127.04839,34.248562 127.11927,38.970302 0.0709,4.72174 -10.19167,126.42376 -10.64752,131.75794 -0.45588,5.33418 -113.30656,18.64263 -125.66932,18.80421 z"
         id="path2097"
         sodipodi:nodetypes="zzzzzzz" />
    </clipPath>
    <clipPath
       clipPathUnits="userSpaceOnUse"
       id="clipPath2099">
      <path
         style="fill:#000000;stroke:none;stroke-width:0.264583px;stroke-linecap:butt;stroke-linejoin:miter;stroke-opacity:1"
         d="M 151.73141,271.07163 C 139.36865,271.23321 28.656402,258.50736 27.641836,255.19664 26.627272,251.88592 22.119169,115.93123 22.376762,108.60645 22.634355,101.28167 145.33117,81.829214 160.92898,81.539178 c 15.5978,-0.290036 127.04839,34.248562 127.11927,38.970302 0.0709,4.72174 -10.19167,126.42376 -10.64752,131.75794 -0.45588,5.33418 -113.30656,18.64263 -125.66932,18.80421 z"
         id="path2101"
         sodipodi:nodetypes="zzzzzzz" />
    </clipPath>
    <clipPath
       clipPathUnits="userSpaceOnUse"
       id="clipPath2103">
      <path
         style="fill:#000000;stroke:none;stroke-width:0.264583px;stroke-linecap:butt;stroke-linejoin:miter;stroke-opacity:1"
         d="M 151.73141,271.07163 C 139.36865,271.23321 28.656402,258.50736 27.641836,255.19664 26.627272,251.88592 22.119169,115.93123 22.376762,108.60645 22.634355,101.28167 145.33117,81.829214 160.92898,81.539178 c 15.5978,-0.290036 127.04839,34.248562 127.11927,38.970302 0.0709,4.72174 -10.19167,126.42376 -10.64752,131.75794 -0.45588,5.33418 -113.30656,18.64263 -125.66932,18.80421 z"
         id="path2105"
         sodipodi:nodetypes="zzzzzzz" />
    </clipPath>
    <clipPath
       clipPathUnits="userSpaceOnUse"
       id="clipPath2107">
      <path
         style="fill:#000000;stroke:none;stroke-width:0.264583px;stroke-linecap:butt;stroke-linejoin:miter;stroke-opacity:1"
         d="M 151.73141,271.07163 C 139.36865,271.23321 28.656402,258.50736 27.641836,255.19664 26.627272,251.88592 22.119169,115.93123 22.376762,108.60645 22.634355,101.28167 145.33117,81.829214 160.92898,81.539178 c 15.5978,-0.290036 127.04839,34.248562 127.11927,38.970302 0.0709,4.72174 -10.19167,126.42376 -10.64752,131.75794 -0.45588,5.33418 -113.30656,18.64263 -125.66932,18.80421 z"
         id="path2109"
         sodipodi:nodetypes="zzzzzzz" />
    </clipPath>
    <clipPath
       clipPathUnits="userSpaceOnUse"
       id="clipPath2111">
      <path
         style="fill:#000000;stroke:none;stroke-width:0.264583px;stroke-linecap:butt;stroke-linejoin:miter;stroke-opacity:1"
         d="M 151.73141,271.07163 C 139.36865,271.23321 28.656402,258.50736 27.641836,255.19664 26.627272,251.88592 22.119169,115.93123 22.376762,108.60645 22.634355,101.28167 145.33117,81.829214 160.92898,81.539178 c 15.5978,-0.290036 127.04839,34.248562 127.11927,38.970302 0.0709,4.72174 -10.19167,126.42376 -10.64752,131.75794 -0.45588,5.33418 -113.30656,18.64263 -125.66932,18.80421 z"
         id="path2113"
         sodipodi:nodetypes="zzzzzzz" />
    </clipPath>
    <clipPath
       clipPathUnits="userSpaceOnUse"
       id="clipPath2115">
      <path
         style="fill:#000000;stroke:none;stroke-width:0.264583px;stroke-linecap:butt;stroke-linejoin:miter;stroke-opacity:1"
         d="M 151.73141,271.07163 C 139.36865,271.23321 28.656402,258.50736 27.641836,255.19664 26.627272,251.88592 22.119169,115.93123 22.376762,108.60645 22.634355,101.28167 145.33117,81.829214 160.92898,81.539178 c 15.5978,-0.290036 127.04839,34.248562 127.11927,38.970302 0.0709,4.72174 -10.19167,126.42376 -10.64752,131.75794 -0.45588,5.33418 -113.30656,18.64263 -125.66932,18.80421 z"
         id="path2117"
         sodipodi:nodetypes="zzzzzzz" />
    </clipPath>
    <clipPath
       clipPathUnits="userSpaceOnUse"
       id="clipPath2119">
      <path
         style="fill:#000000;stroke:none;stroke-width:0.264583px;stroke-linecap:butt;stroke-linejoin:miter;stroke-opacity:1"
         d="M 151.73141,271.07163 C 139.36865,271.23321 28.656402,258.50736 27.641836,255.19664 26.627272,251.88592 22.119169,115.93123 22.376762,108.60645 22.634355,101.28167 145.33117,81.829214 160.92898,81.539178 c 15.5978,-0.290036 127.04839,34.248562 127.11927,38.970302 0.0709,4.72174 -10.19167,126.42376 -10.64752,131.75794 -0.45588,5.33418 -113.30656,18.64263 -125.66932,18.80421 z"
         id="path2121"
         sodipodi:nodetypes="zzzzzzz" />
    </clipPath>
    <clipPath
       clipPathUnits="userSpaceOnUse"
       id="clipPath2123">
      <path
         style="fill:#000000;stroke:none;stroke-width:0.264583px;stroke-linecap:butt;stroke-linejoin:miter;stroke-opacity:1"
         d="M 151.73141,271.07163 C 139.36865,271.23321 28.656402,258.50736 27.641836,255.19664 26.627272,251.88592 22.119169,115.93123 22.376762,108.60645 22.634355,101.28167 145.33117,81.829214 160.92898,81.539178 c 15.5978,-0.290036 127.04839,34.248562 127.11927,38.970302 0.0709,4.72174 -10.19167,126.42376 -10.64752,131.75794 -0.45588,5.33418 -113.30656,18.64263 -125.66932,18.80421 z"
         id="path2125"
         sodipodi:nodetypes="zzzzzzz" />
    </clipPath>
    <clipPath
       clipPathUnits="userSpaceOnUse"
       id="clipPath2127">
      <path
         style="fill:#000000;stroke:none;stroke-width:0.999999px;stroke-linecap:butt;stroke-linejoin:miter;stroke-opacity:1"
         d="m 573.47306,1024.5227 c -46.7254,0.6107 -465.1654,-47.487 -468.99998,-59.99996 -3.83457,-12.51295 -20.87307,-526.35745 -19.89949,-554.04166 0.97358,-27.68422 464.70958,-101.20531 523.66193,-102.30151 58.95232,-1.0962 480.18288,129.44339 480.45078,147.28934 0.2679,17.84595 -38.5197,477.82209 -40.2426,497.98277 -1.723,20.16068 -428.24525,70.46032 -474.97064,71.07102 z"
         id="path2129"
         sodipodi:nodetypes="zzzzzzz" />
    </clipPath>
    <clipPath
       clipPathUnits="userSpaceOnUse"
       id="clipPath2131">
      <path
         style="fill:#000000;stroke:none;stroke-width:0.264583px;stroke-linecap:butt;stroke-linejoin:miter;stroke-opacity:1"
         d="M 151.73141,271.07163 C 139.36865,271.23321 28.656402,258.50736 27.641836,255.19664 26.627272,251.88592 22.119169,115.93123 22.376762,108.60645 22.634355,101.28167 145.33117,81.829214 160.92898,81.539178 c 15.5978,-0.290036 127.04839,34.248562 127.11927,38.970302 0.0709,4.72174 -10.19167,126.42376 -10.64752,131.75794 -0.45588,5.33418 -113.30656,18.64263 -125.66932,18.80421 z"
         id="path2133"
         sodipodi:nodetypes="zzzzzzz" />
    </clipPath>
    <clipPath
       clipPathUnits="userSpaceOnUse"
       id="clipPath2135">
      <path
         style="fill:#000000;stroke:none;stroke-width:0.264583px;stroke-linecap:butt;stroke-linejoin:miter;stroke-opacity:1"
         d="M 151.73141,271.07163 C 139.36865,271.23321 28.656402,258.50736 27.641836,255.19664 26.627272,251.88592 22.119169,115.93123 22.376762,108.60645 22.634355,101.28167 145.33117,81.829214 160.92898,81.539178 c 15.5978,-0.290036 127.04839,34.248562 127.11927,38.970302 0.0709,4.72174 -10.19167,126.42376 -10.64752,131.75794 -0.45588,5.33418 -113.30656,18.64263 -125.66932,18.80421 z"
         id="path2137"
         sodipodi:nodetypes="zzzzzzz" />
    </clipPath>
    <clipPath
       clipPathUnits="userSpaceOnUse"
       id="clipPath2139">
      <path
         style="fill:#000000;stroke:none;stroke-width:0.264583px;stroke-linecap:butt;stroke-linejoin:miter;stroke-opacity:1"
         d="M 151.73141,271.07163 C 139.36865,271.23321 28.656402,258.50736 27.641836,255.19664 26.627272,251.88592 22.119169,115.93123 22.376762,108.60645 22.634355,101.28167 145.33117,81.829214 160.92898,81.539178 c 15.5978,-0.290036 127.04839,34.248562 127.11927,38.970302 0.0709,4.72174 -10.19167,126.42376 -10.64752,131.75794 -0.45588,5.33418 -113.30656,18.64263 -125.66932,18.80421 z"
         id="path2141"
         sodipodi:nodetypes="zzzzzzz" />
    </clipPath>
    <clipPath
       clipPathUnits="userSpaceOnUse"
       id="clipPath2143">
      <path
         style="fill:#000000;stroke:none;stroke-width:0.264583px;stroke-linecap:butt;stroke-linejoin:miter;stroke-opacity:1"
         d="M 151.73141,271.07163 C 139.36865,271.23321 28.656402,258.50736 27.641836,255.19664 26.627272,251.88592 22.119169,115.93123 22.376762,108.60645 22.634355,101.28167 145.33117,81.829214 160.92898,81.539178 c 15.5978,-0.290036 127.04839,34.248562 127.11927,38.970302 0.0709,4.72174 -10.19167,126.42376 -10.64752,131.75794 -0.45588,5.33418 -113.30656,18.64263 -125.66932,18.80421 z"
         id="path2145"
         sodipodi:nodetypes="zzzzzzz" />
    </clipPath>
    <clipPath
       clipPathUnits="userSpaceOnUse"
       id="clipPath2147">
      <path
         style="fill:#000000;stroke:none;stroke-width:0.264583px;stroke-linecap:butt;stroke-linejoin:miter;stroke-opacity:1"
         d="M 151.73141,271.07163 C 139.36865,271.23321 28.656402,258.50736 27.641836,255.19664 26.627272,251.88592 22.119169,115.93123 22.376762,108.60645 22.634355,101.28167 145.33117,81.829214 160.92898,81.539178 c 15.5978,-0.290036 127.04839,34.248562 127.11927,38.970302 0.0709,4.72174 -10.19167,126.42376 -10.64752,131.75794 -0.45588,5.33418 -113.30656,18.64263 -125.66932,18.80421 z"
         id="path2149"
         sodipodi:nodetypes="zzzzzzz" />
    </clipPath>
    <clipPath
       clipPathUnits="userSpaceOnUse"
       id="clipPath2151">
      <path
         style="fill:#000000;stroke:none;stroke-width:0.264583px;stroke-linecap:butt;stroke-linejoin:miter;stroke-opacity:1"
         d="M 151.73141,271.07163 C 139.36865,271.23321 28.656402,258.50736 27.641836,255.19664 26.627272,251.88592 22.119169,115.93123 22.376762,108.60645 22.634355,101.28167 145.33117,81.829214 160.92898,81.539178 c 15.5978,-0.290036 127.04839,34.248562 127.11927,38.970302 0.0709,4.72174 -10.19167,126.42376 -10.64752,131.75794 -0.45588,5.33418 -113.30656,18.64263 -125.66932,18.80421 z"
         id="path2153"
         sodipodi:nodetypes="zzzzzzz" />
    </clipPath>
    <clipPath
       clipPathUnits="userSpaceOnUse"
       id="clipPath2155">
      <path
         style="fill:#000000;stroke:none;stroke-width:0.264583px;stroke-linecap:butt;stroke-linejoin:miter;stroke-opacity:1"
         d="M 151.73141,271.07163 C 139.36865,271.23321 28.656402,258.50736 27.641836,255.19664 26.627272,251.88592 22.119169,115.93123 22.376762,108.60645 22.634355,101.28167 145.33117,81.829214 160.92898,81.539178 c 15.5978,-0.290036 127.04839,34.248562 127.11927,38.970302 0.0709,4.72174 -10.19167,126.42376 -10.64752,131.75794 -0.45588,5.33418 -113.30656,18.64263 -125.66932,18.80421 z"
         id="path2157"
         sodipodi:nodetypes="zzzzzzz" />
    </clipPath>
    <clipPath
       clipPathUnits="userSpaceOnUse"
       id="clipPath2159">
      <path
         style="fill:#000000;stroke:none;stroke-width:0.264583px;stroke-linecap:butt;stroke-linejoin:miter;stroke-opacity:1"
         d="M 151.73141,271.07163 C 139.36865,271.23321 28.656402,258.50736 27.641836,255.19664 26.627272,251.88592 22.119169,115.93123 22.376762,108.60645 22.634355,101.28167 145.33117,81.829214 160.92898,81.539178 c 15.5978,-0.290036 127.04839,34.248562 127.11927,38.970302 0.0709,4.72174 -10.19167,126.42376 -10.64752,131.75794 -0.45588,5.33418 -113.30656,18.64263 -125.66932,18.80421 z"
         id="path2161"
         sodipodi:nodetypes="zzzzzzz" />
    </clipPath>
    <clipPath
       clipPathUnits="userSpaceOnUse"
       id="clipPath2163">
      <path
         style="fill:#000000;stroke:none;stroke-width:0.264583px;stroke-linecap:butt;stroke-linejoin:miter;stroke-opacity:1"
         d="M 151.73141,271.07163 C 139.36865,271.23321 28.656402,258.50736 27.641836,255.19664 26.627272,251.88592 22.119169,115.93123 22.376762,108.60645 22.634355,101.28167 145.33117,81.829214 160.92898,81.539178 c 15.5978,-0.290036 127.04839,34.248562 127.11927,38.970302 0.0709,4.72174 -10.19167,126.42376 -10.64752,131.75794 -0.45588,5.33418 -113.30656,18.64263 -125.66932,18.80421 z"
         id="path2165"
         sodipodi:nodetypes="zzzzzzz" />
    </clipPath>
    <clipPath
       clipPathUnits="userSpaceOnUse"
       id="clipPath2167">
      <path
         style="fill:#000000;stroke:none;stroke-width:0.264583px;stroke-linecap:butt;stroke-linejoin:miter;stroke-opacity:1"
         d="M 151.73141,271.07163 C 139.36865,271.23321 28.656402,258.50736 27.641836,255.19664 26.627272,251.88592 22.119169,115.93123 22.376762,108.60645 22.634355,101.28167 145.33117,81.829214 160.92898,81.539178 c 15.5978,-0.290036 127.04839,34.248562 127.11927,38.970302 0.0709,4.72174 -10.19167,126.42376 -10.64752,131.75794 -0.45588,5.33418 -113.30656,18.64263 -125.66932,18.80421 z"
         id="path2169"
         sodipodi:nodetypes="zzzzzzz" />
    </clipPath>
    <clipPath
       clipPathUnits="userSpaceOnUse"
       id="clipPath2171">
      <path
         style="fill:#000000;stroke:none;stroke-width:0.264583px;stroke-linecap:butt;stroke-linejoin:miter;stroke-opacity:1"
         d="M 151.73141,271.07163 C 139.36865,271.23321 28.656402,258.50736 27.641836,255.19664 26.627272,251.88592 22.119169,115.93123 22.376762,108.60645 22.634355,101.28167 145.33117,81.829214 160.92898,81.539178 c 15.5978,-0.290036 127.04839,34.248562 127.11927,38.970302 0.0709,4.72174 -10.19167,126.42376 -10.64752,131.75794 -0.45588,5.33418 -113.30656,18.64263 -125.66932,18.80421 z"
         id="path2173"
         sodipodi:nodetypes="zzzzzzz" />
    </clipPath>
    <clipPath
       clipPathUnits="userSpaceOnUse"
       id="clipPath2175">
      <path
         style="fill:#000000;stroke:none;stroke-width:0.264583px;stroke-linecap:butt;stroke-linejoin:miter;stroke-opacity:1"
         d="M 151.73141,271.07163 C 139.36865,271.23321 28.656402,258.50736 27.641836,255.19664 26.627272,251.88592 22.119169,115.93123 22.376762,108.60645 22.634355,101.28167 145.33117,81.829214 160.92898,81.539178 c 15.5978,-0.290036 127.04839,34.248562 127.11927,38.970302 0.0709,4.72174 -10.19167,126.42376 -10.64752,131.75794 -0.45588,5.33418 -113.30656,18.64263 -125.66932,18.80421 z"
         id="path2177"
         sodipodi:nodetypes="zzzzzzz" />
    </clipPath>
    <clipPath
       clipPathUnits="userSpaceOnUse"
       id="clipPath2179">
      <path
         style="fill:#000000;stroke:none;stroke-width:0.264583px;stroke-linecap:butt;stroke-linejoin:miter;stroke-opacity:1"
         d="M 151.73141,271.07163 C 139.36865,271.23321 28.656402,258.50736 27.641836,255.19664 26.627272,251.88592 22.119169,115.93123 22.376762,108.60645 22.634355,101.28167 145.33117,81.829214 160.92898,81.539178 c 15.5978,-0.290036 127.04839,34.248562 127.11927,38.970302 0.0709,4.72174 -10.19167,126.42376 -10.64752,131.75794 -0.45588,5.33418 -113.30656,18.64263 -125.66932,18.80421 z"
         id="path2181"
         sodipodi:nodetypes="zzzzzzz" />
    </clipPath>
    <clipPath
       clipPathUnits="userSpaceOnUse"
       id="clipPath2183">
      <path
         style="fill:#000000;stroke:none;stroke-width:0.264583px;stroke-linecap:butt;stroke-linejoin:miter;stroke-opacity:1"
         d="M 151.73141,271.07163 C 139.36865,271.23321 28.656402,258.50736 27.641836,255.19664 26.627272,251.88592 22.119169,115.93123 22.376762,108.60645 22.634355,101.28167 145.33117,81.829214 160.92898,81.539178 c 15.5978,-0.290036 127.04839,34.248562 127.11927,38.970302 0.0709,4.72174 -10.19167,126.42376 -10.64752,131.75794 -0.45588,5.33418 -113.30656,18.64263 -125.66932,18.80421 z"
         id="path2185"
         sodipodi:nodetypes="zzzzzzz" />
    </clipPath>
    <clipPath
       clipPathUnits="userSpaceOnUse"
       id="clipPath2187">
      <path
         style="fill:#000000;stroke:none;stroke-width:0.264583px;stroke-linecap:butt;stroke-linejoin:miter;stroke-opacity:1"
         d="M 151.73141,271.07163 C 139.36865,271.23321 28.656402,258.50736 27.641836,255.19664 26.627272,251.88592 22.119169,115.93123 22.376762,108.60645 22.634355,101.28167 145.33117,81.829214 160.92898,81.539178 c 15.5978,-0.290036 127.04839,34.248562 127.11927,38.970302 0.0709,4.72174 -10.19167,126.42376 -10.64752,131.75794 -0.45588,5.33418 -113.30656,18.64263 -125.66932,18.80421 z"
         id="path2189"
         sodipodi:nodetypes="zzzzzzz" />
    </clipPath>
    <clipPath
       clipPathUnits="userSpaceOnUse"
       id="clipPath2191">
      <path
         style="fill:#000000;stroke:none;stroke-width:0.264583px;stroke-linecap:butt;stroke-linejoin:miter;stroke-opacity:1"
         d="M 151.73141,271.07163 C 139.36865,271.23321 28.656402,258.50736 27.641836,255.19664 26.627272,251.88592 22.119169,115.93123 22.376762,108.60645 22.634355,101.28167 145.33117,81.829214 160.92898,81.539178 c 15.5978,-0.290036 127.04839,34.248562 127.11927,38.970302 0.0709,4.72174 -10.19167,126.42376 -10.64752,131.75794 -0.45588,5.33418 -113.30656,18.64263 -125.66932,18.80421 z"
         id="path2193"
         sodipodi:nodetypes="zzzzzzz" />
    </clipPath>
    <clipPath
       clipPathUnits="userSpaceOnUse"
       id="clipPath2195">
      <path
         style="fill:#000000;stroke:none;stroke-width:0.264583px;stroke-linecap:butt;stroke-linejoin:miter;stroke-opacity:1"
         d="M 151.73141,271.07163 C 139.36865,271.23321 28.656402,258.50736 27.641836,255.19664 26.627272,251.88592 22.119169,115.93123 22.376762,108.60645 22.634355,101.28167 145.33117,81.829214 160.92898,81.539178 c 15.5978,-0.290036 127.04839,34.248562 127.11927,38.970302 0.0709,4.72174 -10.19167,126.42376 -10.64752,131.75794 -0.45588,5.33418 -113.30656,18.64263 -125.66932,18.80421 z"
         id="path2197"
         sodipodi:nodetypes="zzzzzzz" />
    </clipPath>
    <clipPath
       clipPathUnits="userSpaceOnUse"
       id="clipPath1307">
      <path
         style="fill:#000000;fill-opacity:1;stroke:none;stroke-width:0.264583px;stroke-linecap:butt;stroke-linejoin:miter;stroke-opacity:1"
         d="M 175.78065,237.21653 C 165.0208,237.35717 75.500521,222.28459 50.755685,218.12424 c -6.65602,-1.24749 -6.830991,-3.08653 -7.561964,-8.01725 -3.334125,-22.67293 -10.249127,-98.46573 -9.8626,-125.95616 0.05865,-8.245491 1.529241,-9.41042 7.749656,-10.833135 C 68.27752,67.13928 166.55391,48.138339 199.41727,44.684865 c 8.18659,-1.427122 13.56199,0.384022 20.00592,2.717499 26.12081,9.496176 87.5746,37.166661 100.99374,45.400547 3.52155,2.022491 2.85855,3.129113 2.85001,6.394604 -0.0839,20.894055 -6.8697,107.717245 -9.51871,123.040355 -0.41364,2.88594 -1.59496,2.85957 -3.68392,3.22414 -19.54414,3.34854 -122.99005,11.6069 -134.28366,11.75452 z"
         id="path1309"
         sodipodi:nodetypes="sccccccccccs"
         clip-path="none" />
    </clipPath>
    <clipPath
       clipPathUnits="userSpaceOnUse"
       id="clipPath1311">
      <path
         style="fill:#000000;fill-opacity:1;stroke:none;stroke-width:0.264583px;stroke-linecap:butt;stroke-linejoin:miter;stroke-opacity:1"
         d="M 175.78065,237.21653 C 165.0208,237.35717 75.500521,222.28459 50.755685,218.12424 c -6.65602,-1.24749 -6.830991,-3.08653 -7.561964,-8.01725 -3.334125,-22.67293 -10.249127,-98.46573 -9.8626,-125.95616 0.05865,-8.245491 1.529241,-9.41042 7.749656,-10.833135 C 68.27752,67.13928 166.55391,48.138339 199.41727,44.684865 c 8.18659,-1.427122 13.56199,0.384022 20.00592,2.717499 26.12081,9.496176 87.5746,37.166661 100.99374,45.400547 3.52155,2.022491 2.85855,3.129113 2.85001,6.394604 -0.0839,20.894055 -6.8697,107.717245 -9.51871,123.040355 -0.41364,2.88594 -1.59496,2.85957 -3.68392,3.22414 -19.54414,3.34854 -122.99005,11.6069 -134.28366,11.75452 z"
         id="path1313"
         sodipodi:nodetypes="sccccccccccs"
         clip-path="none" />
    </clipPath>
    <clipPath
       clipPathUnits="userSpaceOnUse"
       id="clipPath1315">
      <path
         style="fill:#000000;fill-opacity:1;stroke:none;stroke-width:0.264583px;stroke-linecap:butt;stroke-linejoin:miter;stroke-opacity:1"
         d="M 175.78065,237.21653 C 165.0208,237.35717 75.500521,222.28459 50.755685,218.12424 c -6.65602,-1.24749 -6.830991,-3.08653 -7.561964,-8.01725 -3.334125,-22.67293 -10.249127,-98.46573 -9.8626,-125.95616 0.05865,-8.245491 1.529241,-9.41042 7.749656,-10.833135 C 68.27752,67.13928 166.55391,48.138339 199.41727,44.684865 c 8.18659,-1.427122 13.56199,0.384022 20.00592,2.717499 26.12081,9.496176 87.5746,37.166661 100.99374,45.400547 3.52155,2.022491 2.85855,3.129113 2.85001,6.394604 -0.0839,20.894055 -6.8697,107.717245 -9.51871,123.040355 -0.41364,2.88594 -1.59496,2.85957 -3.68392,3.22414 -19.54414,3.34854 -122.99005,11.6069 -134.28366,11.75452 z"
         id="path1317"
         sodipodi:nodetypes="sccccccccccs"
         clip-path="none" />
    </clipPath>
    <clipPath
       clipPathUnits="userSpaceOnUse"
       id="clipPath1319">
      <path
         style="fill:#000000;fill-opacity:1;stroke:none;stroke-width:0.264583px;stroke-linecap:butt;stroke-linejoin:miter;stroke-opacity:1"
         d="m 153.94637,260.89131 c -10.75985,0.14064 -100.280133,-14.93194 -125.024969,-19.09229 -6.65602,-1.24749 -6.830991,-3.08653 -7.561964,-8.01725 -3.334125,-22.67293 -10.249127,-98.46573 -9.8626,-125.95616 0.05865,-8.24549 1.529241,-9.410419 7.749656,-10.833134 27.196743,-6.178415 125.473137,-25.179356 158.336497,-28.63283 8.18659,-1.427122 13.56199,0.384022 20.00592,2.717499 26.1208,9.496176 87.57459,37.166665 100.99373,45.400545 3.52155,2.02249 2.85856,3.12912 2.85001,6.39461 -0.0839,20.89405 -6.86969,107.71724 -9.5187,123.04035 -0.41365,2.88594 -1.59496,2.85957 -3.68393,3.22414 -19.54413,3.34854 -122.99004,11.6069 -134.28365,11.75452 z"
         id="path1321"
         sodipodi:nodetypes="sccccccccccs"
         clip-path="none" />
    </clipPath>
    <clipPath
       clipPathUnits="userSpaceOnUse"
       id="clipPath1323">
      <path
         style="fill:#000000;fill-opacity:1;stroke:none;stroke-width:0.264583px;stroke-linecap:butt;stroke-linejoin:miter;stroke-opacity:1"
         d="M 175.78065,237.21653 C 165.0208,237.35717 75.500521,222.28459 50.755685,218.12424 c -6.65602,-1.24749 -6.830991,-3.08653 -7.561964,-8.01725 -3.334125,-22.67293 -10.249127,-98.46573 -9.8626,-125.95616 0.05865,-8.245491 1.529241,-9.41042 7.749656,-10.833135 C 68.27752,67.13928 166.55391,48.138339 199.41727,44.684865 c 8.18659,-1.427122 13.56199,0.384022 20.00592,2.717499 26.12081,9.496176 87.5746,37.166661 100.99374,45.400547 3.52155,2.022491 2.85855,3.129113 2.85001,6.394604 -0.0839,20.894055 -6.8697,107.717245 -9.51871,123.040355 -0.41364,2.88594 -1.59496,2.85957 -3.68392,3.22414 -19.54414,3.34854 -122.99005,11.6069 -134.28366,11.75452 z"
         id="path1325"
         sodipodi:nodetypes="sccccccccccs"
         clip-path="none" />
    </clipPath>
    <clipPath
       clipPathUnits="userSpaceOnUse"
       id="clipPath1327">
      <path
         style="fill:#000000;fill-opacity:1;stroke:none;stroke-width:0.264583px;stroke-linecap:butt;stroke-linejoin:miter;stroke-opacity:1"
         d="m 153.94637,260.89131 c -10.75985,0.14064 -100.280133,-14.93194 -125.024969,-19.09229 -6.65602,-1.24749 -6.830991,-3.08653 -7.561964,-8.01725 -3.334125,-22.67293 -10.249127,-98.46573 -9.8626,-125.95616 0.05865,-8.24549 1.529241,-9.410419 7.749656,-10.833134 27.196743,-6.178415 125.473137,-25.179356 158.336497,-28.63283 8.18659,-1.427122 13.56199,0.384022 20.00592,2.717499 26.1208,9.496176 87.57459,37.166665 100.99373,45.400545 3.52155,2.02249 2.85856,3.12912 2.85001,6.39461 -0.0839,20.89405 -6.86969,107.71724 -9.5187,123.04035 -0.41365,2.88594 -1.59496,2.85957 -3.68393,3.22414 -19.54413,3.34854 -122.99004,11.6069 -134.28365,11.75452 z"
         id="path1329"
         sodipodi:nodetypes="sccccccccccs"
         clip-path="none" />
    </clipPath>
    <clipPath
       clipPathUnits="userSpaceOnUse"
       id="clipPath1331">
      <path
         style="fill:#000000;fill-opacity:1;stroke:none;stroke-width:0.264583px;stroke-linecap:butt;stroke-linejoin:miter;stroke-opacity:1"
         d="m 153.94637,260.89131 c -10.75985,0.14064 -100.280133,-14.93194 -125.024969,-19.09229 -6.65602,-1.24749 -6.830991,-3.08653 -7.561964,-8.01725 -3.334125,-22.67293 -10.249127,-98.46573 -9.8626,-125.95616 0.05865,-8.24549 1.529241,-9.410419 7.749656,-10.833134 27.196743,-6.178415 125.473137,-25.179356 158.336497,-28.63283 8.18659,-1.427122 13.56199,0.384022 20.00592,2.717499 26.1208,9.496176 87.57459,37.166665 100.99373,45.400545 3.52155,2.02249 2.85856,3.12912 2.85001,6.39461 -0.0839,20.89405 -6.86969,107.71724 -9.5187,123.04035 -0.41365,2.88594 -1.59496,2.85957 -3.68393,3.22414 -19.54413,3.34854 -122.99004,11.6069 -134.28365,11.75452 z"
         id="path1333"
         sodipodi:nodetypes="sccccccccccs"
         clip-path="none" />
    </clipPath>
    <clipPath
       clipPathUnits="userSpaceOnUse"
       id="clipPath1335">
      <path
         style="fill:#000000;fill-opacity:1;stroke:none;stroke-width:0.264583px;stroke-linecap:butt;stroke-linejoin:miter;stroke-opacity:1"
         d="m 153.94637,260.89131 c -10.75985,0.14064 -100.280133,-14.93194 -125.024969,-19.09229 -6.65602,-1.24749 -6.830991,-3.08653 -7.561964,-8.01725 -3.334125,-22.67293 -10.249127,-98.46573 -9.8626,-125.95616 0.05865,-8.24549 1.529241,-9.410419 7.749656,-10.833134 27.196743,-6.178415 125.473137,-25.179356 158.336497,-28.63283 8.18659,-1.427122 13.56199,0.384022 20.00592,2.717499 26.1208,9.496176 87.57459,37.166665 100.99373,45.400545 3.52155,2.02249 2.85856,3.12912 2.85001,6.39461 -0.0839,20.89405 -6.86969,107.71724 -9.5187,123.04035 -0.41365,2.88594 -1.59496,2.85957 -3.68393,3.22414 -19.54413,3.34854 -122.99004,11.6069 -134.28365,11.75452 z"
         id="path1337"
         sodipodi:nodetypes="sccccccccccs"
         clip-path="none" />
    </clipPath>
    <clipPath
       clipPathUnits="userSpaceOnUse"
       id="clipPath1339">
      <path
         style="fill:#000000;fill-opacity:1;stroke:none;stroke-width:0.264583px;stroke-linecap:butt;stroke-linejoin:miter;stroke-opacity:1"
         d="m 153.94637,260.89131 c -10.75985,0.14064 -100.280133,-14.93194 -125.024969,-19.09229 -6.65602,-1.24749 -6.830991,-3.08653 -7.561964,-8.01725 -3.334125,-22.67293 -10.249127,-98.46573 -9.8626,-125.95616 0.05865,-8.24549 1.529241,-9.410419 7.749656,-10.833134 27.196743,-6.178415 125.473137,-25.179356 158.336497,-28.63283 8.18659,-1.427122 13.56199,0.384022 20.00592,2.717499 26.1208,9.496176 87.57459,37.166665 100.99373,45.400545 3.52155,2.02249 2.85856,3.12912 2.85001,6.39461 -0.0839,20.89405 -6.86969,107.71724 -9.5187,123.04035 -0.41365,2.88594 -1.59496,2.85957 -3.68393,3.22414 -19.54413,3.34854 -122.99004,11.6069 -134.28365,11.75452 z"
         id="path1341"
         sodipodi:nodetypes="sccccccccccs"
         clip-path="none" />
    </clipPath>
    <clipPath
       clipPathUnits="userSpaceOnUse"
       id="clipPath1343">
      <path
         style="fill:#000000;fill-opacity:1;stroke:none;stroke-width:0.264583px;stroke-linecap:butt;stroke-linejoin:miter;stroke-opacity:1"
         d="m 153.94637,260.89131 c -10.75985,0.14064 -100.280133,-14.93194 -125.024969,-19.09229 -6.65602,-1.24749 -6.830991,-3.08653 -7.561964,-8.01725 -3.334125,-22.67293 -10.249127,-98.46573 -9.8626,-125.95616 0.05865,-8.24549 1.529241,-9.410419 7.749656,-10.833134 27.196743,-6.178415 125.473137,-25.179356 158.336497,-28.63283 8.18659,-1.427122 13.56199,0.384022 20.00592,2.717499 26.1208,9.496176 87.57459,37.166665 100.99373,45.400545 3.52155,2.02249 2.85856,3.12912 2.85001,6.39461 -0.0839,20.89405 -6.86969,107.71724 -9.5187,123.04035 -0.41365,2.88594 -1.59496,2.85957 -3.68393,3.22414 -19.54413,3.34854 -122.99004,11.6069 -134.28365,11.75452 z"
         id="path1345"
         sodipodi:nodetypes="sccccccccccs"
         clip-path="none" />
    </clipPath>
    <clipPath
       clipPathUnits="userSpaceOnUse"
       id="clipPath1347">
      <path
         style="fill:#000000;fill-opacity:1;stroke:none;stroke-width:0.264583px;stroke-linecap:butt;stroke-linejoin:miter;stroke-opacity:1"
         d="m 153.94637,260.89131 c -10.75985,0.14064 -100.280133,-14.93194 -125.024969,-19.09229 -6.65602,-1.24749 -6.830991,-3.08653 -7.561964,-8.01725 -3.334125,-22.67293 -10.249127,-98.46573 -9.8626,-125.95616 0.05865,-8.24549 1.529241,-9.410419 7.749656,-10.833134 27.196743,-6.178415 125.473137,-25.179356 158.336497,-28.63283 8.18659,-1.427122 13.56199,0.384022 20.00592,2.717499 26.1208,9.496176 87.57459,37.166665 100.99373,45.400545 3.52155,2.02249 2.85856,3.12912 2.85001,6.39461 -0.0839,20.89405 -6.86969,107.71724 -9.5187,123.04035 -0.41365,2.88594 -1.59496,2.85957 -3.68393,3.22414 -19.54413,3.34854 -122.99004,11.6069 -134.28365,11.75452 z"
         id="path1349"
         sodipodi:nodetypes="sccccccccccs"
         clip-path="none" />
    </clipPath>
    <clipPath
       clipPathUnits="userSpaceOnUse"
       id="clipPath1351">
      <path
         style="fill:#000000;fill-opacity:1;stroke:none;stroke-width:0.264583px;stroke-linecap:butt;stroke-linejoin:miter;stroke-opacity:1"
         d="m 153.94637,260.89131 c -10.75985,0.14064 -100.280133,-14.93194 -125.024969,-19.09229 -6.65602,-1.24749 -6.830991,-3.08653 -7.561964,-8.01725 -3.334125,-22.67293 -10.249127,-98.46573 -9.8626,-125.95616 0.05865,-8.24549 1.529241,-9.410419 7.749656,-10.833134 27.196743,-6.178415 125.473137,-25.179356 158.336497,-28.63283 8.18659,-1.427122 13.56199,0.384022 20.00592,2.717499 26.1208,9.496176 87.57459,37.166665 100.99373,45.400545 3.52155,2.02249 2.85856,3.12912 2.85001,6.39461 -0.0839,20.89405 -6.86969,107.71724 -9.5187,123.04035 -0.41365,2.88594 -1.59496,2.85957 -3.68393,3.22414 -19.54413,3.34854 -122.99004,11.6069 -134.28365,11.75452 z"
         id="path1353"
         sodipodi:nodetypes="sccccccccccs"
         clip-path="none" />
    </clipPath>
    <clipPath
       clipPathUnits="userSpaceOnUse"
       id="clipPath1355">
      <path
         style="fill:#000000;fill-opacity:1;stroke:none;stroke-width:0.264583px;stroke-linecap:butt;stroke-linejoin:miter;stroke-opacity:1"
         d="m 153.94637,260.89131 c -10.75985,0.14064 -100.280133,-14.93194 -125.024969,-19.09229 -6.65602,-1.24749 -6.830991,-3.08653 -7.561964,-8.01725 -3.334125,-22.67293 -10.249127,-98.46573 -9.8626,-125.95616 0.05865,-8.24549 1.529241,-9.410419 7.749656,-10.833134 27.196743,-6.178415 125.473137,-25.179356 158.336497,-28.63283 8.18659,-1.427122 13.56199,0.384022 20.00592,2.717499 26.1208,9.496176 87.57459,37.166665 100.99373,45.400545 3.52155,2.02249 2.85856,3.12912 2.85001,6.39461 -0.0839,20.89405 -6.86969,107.71724 -9.5187,123.04035 -0.41365,2.88594 -1.59496,2.85957 -3.68393,3.22414 -19.54413,3.34854 -122.99004,11.6069 -134.28365,11.75452 z"
         id="path1357"
         sodipodi:nodetypes="sccccccccccs"
         clip-path="none" />
    </clipPath>
    <clipPath
       clipPathUnits="userSpaceOnUse"
       id="clipPath1359">
      <path
         style="fill:#000000;fill-opacity:1;stroke:none;stroke-width:0.999999px;stroke-linecap:butt;stroke-linejoin:miter;stroke-opacity:1"
         d="M 581.84454,986.04591 C 541.17739,986.57747 202.83302,929.61023 109.30923,913.88608 84.152623,909.17115 83.491313,902.22045 80.728583,883.58466 68.127163,797.8917 41.991722,511.43071 43.452612,407.52987 43.674282,376.36581 49.232423,371.96293 72.742653,366.58574 175.53349,343.23425 546.97182,271.41967 671.1798,258.36717 c 30.94144,-5.39385 51.25791,1.45142 75.61292,10.27086 98.72432,35.89106 330.99058,140.47242 381.70858,171.59262 13.3098,7.64406 10.804,11.82657 10.7717,24.16858 -0.3171,78.96966 -25.9642,407.12031 -35.9762,465.03442 -1.5634,10.90749 -6.0282,10.80783 -13.9235,12.18573 -73.8676,12.6559 -464.84425,43.8686 -507.52876,44.42653 z"
         id="path1361"
         sodipodi:nodetypes="sccccccccccs"
         clip-path="none" />
    </clipPath>
    <clipPath
       clipPathUnits="userSpaceOnUse"
       id="clipPath1363">
      <path
         style="fill:#000000;fill-opacity:1;stroke:none;stroke-width:0.264583px;stroke-linecap:butt;stroke-linejoin:miter;stroke-opacity:1"
         d="m 153.94637,260.89131 c -10.75985,0.14064 -100.280133,-14.93194 -125.024969,-19.09229 -6.65602,-1.24749 -6.830991,-3.08653 -7.561964,-8.01725 -3.334125,-22.67293 -10.249127,-98.46573 -9.8626,-125.95616 0.05865,-8.24549 1.529241,-9.410419 7.749656,-10.833134 27.196743,-6.178415 125.473137,-25.179356 158.336497,-28.63283 8.18659,-1.427122 13.56199,0.384022 20.00592,2.717499 26.1208,9.496176 87.57459,37.166665 100.99373,45.400545 3.52155,2.02249 2.85856,3.12912 2.85001,6.39461 -0.0839,20.89405 -6.86969,107.71724 -9.5187,123.04035 -0.41365,2.88594 -1.59496,2.85957 -3.68393,3.22414 -19.54413,3.34854 -122.99004,11.6069 -134.28365,11.75452 z"
         id="path1365"
         sodipodi:nodetypes="sccccccccccs"
         clip-path="none" />
    </clipPath>
    <clipPath
       clipPathUnits="userSpaceOnUse"
       id="clipPath1367">
      <path
         style="fill:#000000;fill-opacity:1;stroke:none;stroke-width:0.264583px;stroke-linecap:butt;stroke-linejoin:miter;stroke-opacity:1"
         d="m 153.94637,260.89131 c -10.75985,0.14064 -100.280133,-14.93194 -125.024969,-19.09229 -6.65602,-1.24749 -6.830991,-3.08653 -7.561964,-8.01725 -3.334125,-22.67293 -10.249127,-98.46573 -9.8626,-125.95616 0.05865,-8.24549 1.529241,-9.410419 7.749656,-10.833134 27.196743,-6.178415 125.473137,-25.179356 158.336497,-28.63283 8.18659,-1.427122 13.56199,0.384022 20.00592,2.717499 26.1208,9.496176 87.57459,37.166665 100.99373,45.400545 3.52155,2.02249 2.85856,3.12912 2.85001,6.39461 -0.0839,20.89405 -6.86969,107.71724 -9.5187,123.04035 -0.41365,2.88594 -1.59496,2.85957 -3.68393,3.22414 -19.54413,3.34854 -122.99004,11.6069 -134.28365,11.75452 z"
         id="path1369"
         sodipodi:nodetypes="sccccccccccs"
         clip-path="none" />
    </clipPath>
    <clipPath
       clipPathUnits="userSpaceOnUse"
       id="clipPath1371">
      <path
         style="fill:#000000;fill-opacity:1;stroke:none;stroke-width:0.264583px;stroke-linecap:butt;stroke-linejoin:miter;stroke-opacity:1"
         d="m 153.94637,260.89131 c -10.75985,0.14064 -100.280133,-14.93194 -125.024969,-19.09229 -6.65602,-1.24749 -6.830991,-3.08653 -7.561964,-8.01725 -3.334125,-22.67293 -10.249127,-98.46573 -9.8626,-125.95616 0.05865,-8.24549 1.529241,-9.410419 7.749656,-10.833134 27.196743,-6.178415 125.473137,-25.179356 158.336497,-28.63283 8.18659,-1.427122 13.56199,0.384022 20.00592,2.717499 26.1208,9.496176 87.57459,37.166665 100.99373,45.400545 3.52155,2.02249 2.85856,3.12912 2.85001,6.39461 -0.0839,20.89405 -6.86969,107.71724 -9.5187,123.04035 -0.41365,2.88594 -1.59496,2.85957 -3.68393,3.22414 -19.54413,3.34854 -122.99004,11.6069 -134.28365,11.75452 z"
         id="path1373"
         sodipodi:nodetypes="sccccccccccs"
         clip-path="none" />
    </clipPath>
    <clipPath
       clipPathUnits="userSpaceOnUse"
       id="clipPath1375">
      <path
         style="fill:#000000;fill-opacity:1;stroke:none;stroke-width:0.264583px;stroke-linecap:butt;stroke-linejoin:miter;stroke-opacity:1"
         d="m 153.94637,260.89131 c -10.75985,0.14064 -100.280133,-14.93194 -125.024969,-19.09229 -6.65602,-1.24749 -6.830991,-3.08653 -7.561964,-8.01725 -3.334125,-22.67293 -10.249127,-98.46573 -9.8626,-125.95616 0.05865,-8.24549 1.529241,-9.410419 7.749656,-10.833134 27.196743,-6.178415 125.473137,-25.179356 158.336497,-28.63283 8.18659,-1.427122 13.56199,0.384022 20.00592,2.717499 26.1208,9.496176 87.57459,37.166665 100.99373,45.400545 3.52155,2.02249 2.85856,3.12912 2.85001,6.39461 -0.0839,20.89405 -6.86969,107.71724 -9.5187,123.04035 -0.41365,2.88594 -1.59496,2.85957 -3.68393,3.22414 -19.54413,3.34854 -122.99004,11.6069 -134.28365,11.75452 z"
         id="path1377"
         sodipodi:nodetypes="sccccccccccs"
         clip-path="none" />
    </clipPath>
    <clipPath
       clipPathUnits="userSpaceOnUse"
       id="clipPath1379">
      <path
         style="fill:#000000;fill-opacity:1;stroke:none;stroke-width:0.264583px;stroke-linecap:butt;stroke-linejoin:miter;stroke-opacity:1"
         d="m 153.94637,260.89131 c -10.75985,0.14064 -100.280133,-14.93194 -125.024969,-19.09229 -6.65602,-1.24749 -6.830991,-3.08653 -7.561964,-8.01725 -3.334125,-22.67293 -10.249127,-98.46573 -9.8626,-125.95616 0.05865,-8.24549 1.529241,-9.410419 7.749656,-10.833134 27.196743,-6.178415 125.473137,-25.179356 158.336497,-28.63283 8.18659,-1.427122 13.56199,0.384022 20.00592,2.717499 26.1208,9.496176 87.57459,37.166665 100.99373,45.400545 3.52155,2.02249 2.85856,3.12912 2.85001,6.39461 -0.0839,20.89405 -6.86969,107.71724 -9.5187,123.04035 -0.41365,2.88594 -1.59496,2.85957 -3.68393,3.22414 -19.54413,3.34854 -122.99004,11.6069 -134.28365,11.75452 z"
         id="path1381"
         sodipodi:nodetypes="sccccccccccs"
         clip-path="none" />
    </clipPath>
    <clipPath
       clipPathUnits="userSpaceOnUse"
       id="clipPath1383">
      <path
         style="fill:#000000;fill-opacity:1;stroke:none;stroke-width:0.264583px;stroke-linecap:butt;stroke-linejoin:miter;stroke-opacity:1"
         d="m 153.94637,260.89131 c -10.75985,0.14064 -100.280133,-14.93194 -125.024969,-19.09229 -6.65602,-1.24749 -6.830991,-3.08653 -7.561964,-8.01725 -3.334125,-22.67293 -10.249127,-98.46573 -9.8626,-125.95616 0.05865,-8.24549 1.529241,-9.410419 7.749656,-10.833134 27.196743,-6.178415 125.473137,-25.179356 158.336497,-28.63283 8.18659,-1.427122 13.56199,0.384022 20.00592,2.717499 26.1208,9.496176 87.57459,37.166665 100.99373,45.400545 3.52155,2.02249 2.85856,3.12912 2.85001,6.39461 -0.0839,20.89405 -6.86969,107.71724 -9.5187,123.04035 -0.41365,2.88594 -1.59496,2.85957 -3.68393,3.22414 -19.54413,3.34854 -122.99004,11.6069 -134.28365,11.75452 z"
         id="path1385"
         sodipodi:nodetypes="sccccccccccs"
         clip-path="none" />
    </clipPath>
    <clipPath
       clipPathUnits="userSpaceOnUse"
       id="clipPath1387">
      <path
         style="fill:#000000;fill-opacity:1;stroke:none;stroke-width:0.264583px;stroke-linecap:butt;stroke-linejoin:miter;stroke-opacity:1"
         d="m 153.94637,260.89131 c -10.75985,0.14064 -100.280133,-14.93194 -125.024969,-19.09229 -6.65602,-1.24749 -6.830991,-3.08653 -7.561964,-8.01725 -3.334125,-22.67293 -10.249127,-98.46573 -9.8626,-125.95616 0.05865,-8.24549 1.529241,-9.410419 7.749656,-10.833134 27.196743,-6.178415 125.473137,-25.179356 158.336497,-28.63283 8.18659,-1.427122 13.56199,0.384022 20.00592,2.717499 26.1208,9.496176 87.57459,37.166665 100.99373,45.400545 3.52155,2.02249 2.85856,3.12912 2.85001,6.39461 -0.0839,20.89405 -6.86969,107.71724 -9.5187,123.04035 -0.41365,2.88594 -1.59496,2.85957 -3.68393,3.22414 -19.54413,3.34854 -122.99004,11.6069 -134.28365,11.75452 z"
         id="path1389"
         sodipodi:nodetypes="sccccccccccs"
         clip-path="none" />
    </clipPath>
    <clipPath
       clipPathUnits="userSpaceOnUse"
       id="clipPath1391">
      <path
         style="fill:#000000;fill-opacity:1;stroke:none;stroke-width:0.264583px;stroke-linecap:butt;stroke-linejoin:miter;stroke-opacity:1"
         d="m 153.94637,260.89131 c -10.75985,0.14064 -100.280133,-14.93194 -125.024969,-19.09229 -6.65602,-1.24749 -6.830991,-3.08653 -7.561964,-8.01725 -3.334125,-22.67293 -10.249127,-98.46573 -9.8626,-125.95616 0.05865,-8.24549 1.529241,-9.410419 7.749656,-10.833134 27.196743,-6.178415 125.473137,-25.179356 158.336497,-28.63283 8.18659,-1.427122 13.56199,0.384022 20.00592,2.717499 26.1208,9.496176 87.57459,37.166665 100.99373,45.400545 3.52155,2.02249 2.85856,3.12912 2.85001,6.39461 -0.0839,20.89405 -6.86969,107.71724 -9.5187,123.04035 -0.41365,2.88594 -1.59496,2.85957 -3.68393,3.22414 -19.54413,3.34854 -122.99004,11.6069 -134.28365,11.75452 z"
         id="path1393"
         sodipodi:nodetypes="sccccccccccs"
         clip-path="none" />
    </clipPath>
    <clipPath
       clipPathUnits="userSpaceOnUse"
       id="clipPath1395">
      <path
         style="fill:#000000;fill-opacity:1;stroke:none;stroke-width:0.264583px;stroke-linecap:butt;stroke-linejoin:miter;stroke-opacity:1"
         d="m 153.94637,260.89131 c -10.75985,0.14064 -100.280133,-14.93194 -125.024969,-19.09229 -6.65602,-1.24749 -6.830991,-3.08653 -7.561964,-8.01725 -3.334125,-22.67293 -10.249127,-98.46573 -9.8626,-125.95616 0.05865,-8.24549 1.529241,-9.410419 7.749656,-10.833134 27.196743,-6.178415 125.473137,-25.179356 158.336497,-28.63283 8.18659,-1.427122 13.56199,0.384022 20.00592,2.717499 26.1208,9.496176 87.57459,37.166665 100.99373,45.400545 3.52155,2.02249 2.85856,3.12912 2.85001,6.39461 -0.0839,20.89405 -6.86969,107.71724 -9.5187,123.04035 -0.41365,2.88594 -1.59496,2.85957 -3.68393,3.22414 -19.54413,3.34854 -122.99004,11.6069 -134.28365,11.75452 z"
         id="path1397"
         sodipodi:nodetypes="sccccccccccs"
         clip-path="none" />
    </clipPath>
    <clipPath
       clipPathUnits="userSpaceOnUse"
       id="clipPath1399">
      <path
         style="fill:#000000;fill-opacity:1;stroke:none;stroke-width:0.264583px;stroke-linecap:butt;stroke-linejoin:miter;stroke-opacity:1"
         d="m 153.94637,260.89131 c -10.75985,0.14064 -100.280133,-14.93194 -125.024969,-19.09229 -6.65602,-1.24749 -6.830991,-3.08653 -7.561964,-8.01725 -3.334125,-22.67293 -10.249127,-98.46573 -9.8626,-125.95616 0.05865,-8.24549 1.529241,-9.410419 7.749656,-10.833134 27.196743,-6.178415 125.473137,-25.179356 158.336497,-28.63283 8.18659,-1.427122 13.56199,0.384022 20.00592,2.717499 26.1208,9.496176 87.57459,37.166665 100.99373,45.400545 3.52155,2.02249 2.85856,3.12912 2.85001,6.39461 -0.0839,20.89405 -6.86969,107.71724 -9.5187,123.04035 -0.41365,2.88594 -1.59496,2.85957 -3.68393,3.22414 -19.54413,3.34854 -122.99004,11.6069 -134.28365,11.75452 z"
         id="path1401"
         sodipodi:nodetypes="sccccccccccs"
         clip-path="none" />
    </clipPath>
    <clipPath
       clipPathUnits="userSpaceOnUse"
       id="clipPath1403">
      <path
         style="fill:#000000;fill-opacity:1;stroke:none;stroke-width:0.264583px;stroke-linecap:butt;stroke-linejoin:miter;stroke-opacity:1"
         d="m 153.94637,260.89131 c -10.75985,0.14064 -100.280133,-14.93194 -125.024969,-19.09229 -6.65602,-1.24749 -6.830991,-3.08653 -7.561964,-8.01725 -3.334125,-22.67293 -10.249127,-98.46573 -9.8626,-125.95616 0.05865,-8.24549 1.529241,-9.410419 7.749656,-10.833134 27.196743,-6.178415 125.473137,-25.179356 158.336497,-28.63283 8.18659,-1.427122 13.56199,0.384022 20.00592,2.717499 26.1208,9.496176 87.57459,37.166665 100.99373,45.400545 3.52155,2.02249 2.85856,3.12912 2.85001,6.39461 -0.0839,20.89405 -6.86969,107.71724 -9.5187,123.04035 -0.41365,2.88594 -1.59496,2.85957 -3.68393,3.22414 -19.54413,3.34854 -122.99004,11.6069 -134.28365,11.75452 z"
         id="path1405"
         sodipodi:nodetypes="sccccccccccs"
         clip-path="none" />
    </clipPath>
    <clipPath
       clipPathUnits="userSpaceOnUse"
       id="clipPath1407">
      <path
         style="fill:#000000;fill-opacity:1;stroke:none;stroke-width:0.264583px;stroke-linecap:butt;stroke-linejoin:miter;stroke-opacity:1"
         d="m 153.94637,260.89131 c -10.75985,0.14064 -100.280133,-14.93194 -125.024969,-19.09229 -6.65602,-1.24749 -6.830991,-3.08653 -7.561964,-8.01725 -3.334125,-22.67293 -10.249127,-98.46573 -9.8626,-125.95616 0.05865,-8.24549 1.529241,-9.410419 7.749656,-10.833134 27.196743,-6.178415 125.473137,-25.179356 158.336497,-28.63283 8.18659,-1.427122 13.56199,0.384022 20.00592,2.717499 26.1208,9.496176 87.57459,37.166665 100.99373,45.400545 3.52155,2.02249 2.85856,3.12912 2.85001,6.39461 -0.0839,20.89405 -6.86969,107.71724 -9.5187,123.04035 -0.41365,2.88594 -1.59496,2.85957 -3.68393,3.22414 -19.54413,3.34854 -122.99004,11.6069 -134.28365,11.75452 z"
         id="path1409"
         sodipodi:nodetypes="sccccccccccs"
         clip-path="none" />
    </clipPath>
    <clipPath
       clipPathUnits="userSpaceOnUse"
       id="clipPath1411">
      <path
         style="fill:#000000;fill-opacity:1;stroke:none;stroke-width:0.264583px;stroke-linecap:butt;stroke-linejoin:miter;stroke-opacity:1"
         d="m 153.94637,260.89131 c -10.75985,0.14064 -100.280133,-14.93194 -125.024969,-19.09229 -6.65602,-1.24749 -6.830991,-3.08653 -7.561964,-8.01725 -3.334125,-22.67293 -10.249127,-98.46573 -9.8626,-125.95616 0.05865,-8.24549 1.529241,-9.410419 7.749656,-10.833134 27.196743,-6.178415 125.473137,-25.179356 158.336497,-28.63283 8.18659,-1.427122 13.56199,0.384022 20.00592,2.717499 26.1208,9.496176 87.57459,37.166665 100.99373,45.400545 3.52155,2.02249 2.85856,3.12912 2.85001,6.39461 -0.0839,20.89405 -6.86969,107.71724 -9.5187,123.04035 -0.41365,2.88594 -1.59496,2.85957 -3.68393,3.22414 -19.54413,3.34854 -122.99004,11.6069 -134.28365,11.75452 z"
         id="path1413"
         sodipodi:nodetypes="sccccccccccs"
         clip-path="none" />
    </clipPath>
    <clipPath
       clipPathUnits="userSpaceOnUse"
       id="clipPath1415">
      <path
         style="fill:#000000;fill-opacity:1;stroke:none;stroke-width:0.264583px;stroke-linecap:butt;stroke-linejoin:miter;stroke-opacity:1"
         d="m 153.94637,260.89131 c -10.75985,0.14064 -100.280133,-14.93194 -125.024969,-19.09229 -6.65602,-1.24749 -6.830991,-3.08653 -7.561964,-8.01725 -3.334125,-22.67293 -10.249127,-98.46573 -9.8626,-125.95616 0.05865,-8.24549 1.529241,-9.410419 7.749656,-10.833134 27.196743,-6.178415 125.473137,-25.179356 158.336497,-28.63283 8.18659,-1.427122 13.56199,0.384022 20.00592,2.717499 26.1208,9.496176 87.57459,37.166665 100.99373,45.400545 3.52155,2.02249 2.85856,3.12912 2.85001,6.39461 -0.0839,20.89405 -6.86969,107.71724 -9.5187,123.04035 -0.41365,2.88594 -1.59496,2.85957 -3.68393,3.22414 -19.54413,3.34854 -122.99004,11.6069 -134.28365,11.75452 z"
         id="path1417"
         sodipodi:nodetypes="sccccccccccs"
         clip-path="none" />
    </clipPath>
    <clipPath
       clipPathUnits="userSpaceOnUse"
       id="clipPath1419">
      <path
         style="fill:#000000;fill-opacity:1;stroke:none;stroke-width:0.264583px;stroke-linecap:butt;stroke-linejoin:miter;stroke-opacity:1"
         d="m 153.94637,260.89131 c -10.75985,0.14064 -100.280133,-14.93194 -125.024969,-19.09229 -6.65602,-1.24749 -6.830991,-3.08653 -7.561964,-8.01725 -3.334125,-22.67293 -10.249127,-98.46573 -9.8626,-125.95616 0.05865,-8.24549 1.529241,-9.410419 7.749656,-10.833134 27.196743,-6.178415 125.473137,-25.179356 158.336497,-28.63283 8.18659,-1.427122 13.56199,0.384022 20.00592,2.717499 26.1208,9.496176 87.57459,37.166665 100.99373,45.400545 3.52155,2.02249 2.85856,3.12912 2.85001,6.39461 -0.0839,20.89405 -6.86969,107.71724 -9.5187,123.04035 -0.41365,2.88594 -1.59496,2.85957 -3.68393,3.22414 -19.54413,3.34854 -122.99004,11.6069 -134.28365,11.75452 z"
         id="path1421"
         sodipodi:nodetypes="sccccccccccs"
         clip-path="none" />
    </clipPath>
    <clipPath
       clipPathUnits="userSpaceOnUse"
       id="clipPath1423">
      <path
         style="fill:#000000;fill-opacity:1;stroke:none;stroke-width:0.264583px;stroke-linecap:butt;stroke-linejoin:miter;stroke-opacity:1"
         d="m 153.94637,260.89131 c -10.75985,0.14064 -100.280133,-14.93194 -125.024969,-19.09229 -6.65602,-1.24749 -6.830991,-3.08653 -7.561964,-8.01725 -3.334125,-22.67293 -10.249127,-98.46573 -9.8626,-125.95616 0.05865,-8.24549 1.529241,-9.410419 7.749656,-10.833134 27.196743,-6.178415 125.473137,-25.179356 158.336497,-28.63283 8.18659,-1.427122 13.56199,0.384022 20.00592,2.717499 26.1208,9.496176 87.57459,37.166665 100.99373,45.400545 3.52155,2.02249 2.85856,3.12912 2.85001,6.39461 -0.0839,20.89405 -6.86969,107.71724 -9.5187,123.04035 -0.41365,2.88594 -1.59496,2.85957 -3.68393,3.22414 -19.54413,3.34854 -122.99004,11.6069 -134.28365,11.75452 z"
         id="path1425"
         sodipodi:nodetypes="sccccccccccs"
         clip-path="none" />
    </clipPath>
    <clipPath
       clipPathUnits="userSpaceOnUse"
       id="clipPath1427">
      <path
         style="fill:#000000;fill-opacity:1;stroke:none;stroke-width:0.264583px;stroke-linecap:butt;stroke-linejoin:miter;stroke-opacity:1"
         d="m 153.94637,260.89131 c -10.75985,0.14064 -100.280133,-14.93194 -125.024969,-19.09229 -6.65602,-1.24749 -6.830991,-3.08653 -7.561964,-8.01725 -3.334125,-22.67293 -10.249127,-98.46573 -9.8626,-125.95616 0.05865,-8.24549 1.529241,-9.410419 7.749656,-10.833134 27.196743,-6.178415 125.473137,-25.179356 158.336497,-28.63283 8.18659,-1.427122 13.56199,0.384022 20.00592,2.717499 26.1208,9.496176 87.57459,37.166665 100.99373,45.400545 3.52155,2.02249 2.85856,3.12912 2.85001,6.39461 -0.0839,20.89405 -6.86969,107.71724 -9.5187,123.04035 -0.41365,2.88594 -1.59496,2.85957 -3.68393,3.22414 -19.54413,3.34854 -122.99004,11.6069 -134.28365,11.75452 z"
         id="path1429"
         sodipodi:nodetypes="sccccccccccs"
         clip-path="none" />
    </clipPath>
    <clipPath
       clipPathUnits="userSpaceOnUse"
       id="clipPath1431">
      <path
         style="fill:#000000;fill-opacity:1;stroke:none;stroke-width:0.264583px;stroke-linecap:butt;stroke-linejoin:miter;stroke-opacity:1"
         d="M 175.78065,237.21653 C 165.0208,237.35717 75.500521,222.28459 50.755685,218.12424 c -6.65602,-1.24749 -6.830991,-3.08653 -7.561964,-8.01725 -3.334125,-22.67293 -10.249127,-98.46573 -9.8626,-125.95616 0.05865,-8.245491 1.529241,-9.41042 7.749656,-10.833135 C 68.27752,67.13928 166.55391,48.138339 199.41727,44.684865 c 8.18659,-1.427122 13.56199,0.384022 20.00592,2.717499 26.12081,9.496176 87.5746,37.166661 100.99374,45.400547 3.52155,2.022491 2.85855,3.129113 2.85001,6.394604 -0.0839,20.894055 -6.8697,107.717245 -9.51871,123.040355 -0.41364,2.88594 -1.59496,2.85957 -3.68392,3.22414 -19.54414,3.34854 -122.99005,11.6069 -134.28366,11.75452 z"
         id="path1433"
         sodipodi:nodetypes="sccccccccccs"
         clip-path="none" />
    </clipPath>
  </defs>
  <sodipodi:namedview
     id="base"
     pagecolor="#ffffff"
     bordercolor="#666666"
     borderopacity="1.0"
     inkscape:pageopacity="0.0"
     inkscape:pageshadow="2"
     inkscape:zoom="0.6261479"
     inkscape:cx="-172.1362"
     inkscape:cy="694.5197"
     inkscape:document-units="mm"
     inkscape:current-layer="layer3"
     inkscape:document-rotation="0"
     showgrid="false"
     inkscape:window-width="2560"
     inkscape:window-height="1361"
     inkscape:window-x="-9"
     inkscape:window-y="-9"
     inkscape:window-maximized="1"
     inkscape:snap-nodes="true"
     inkscape:pagecheckerboard="true" />
  <metadata
     id="metadata5">
    <rdf:RDF>
      <cc:Work
         rdf:about="">
        <dc:format>image/svg+xml</dc:format>
        <dc:type
           rdf:resource="http://purl.org/dc/dcmitype/StillImage" />
        <dc:title></dc:title>
      </cc:Work>
    </rdf:RDF>
  </metadata>
  <g
     inkscape:groupmode="layer"
     id="layer3"
     inkscape:label="background"
     style="display:inline"
     sodipodi:insensitive="true">
    <rect
       style="fill:#ffffff;stroke-width:0.12614;paint-order:fill markers stroke"
       id="rect921"
       width="249.33546"
       height="199.89038"
       x="-0.13080592"
       y="0.46680424"
       ry="0.074324422" />
  </g>
  <g
     inkscape:groupmode="layer"
     id="layer2"
     inkscape:label="people"
     style="display:inline;opacity:1">
    <rect
       style="fill:#dedede;fill-opacity:1;stroke-width:4.99999;stroke-linecap:round;stroke-linejoin:round;paint-order:fill markers stroke"
       id="rect1181"
       width="353.35281"
       height="302.99084"
       x="-1.6377883"
       y="-0.81889415"
       ry="0.11266673"
       clip-path="url(#clipPath1431)"
       transform="matrix(0.73193166,0,0,0.73193166,-6.2420037,-8.755582)" />
    <path
       style="fill:#ff8552;fill-opacity:1;stroke:none;stroke-width:0.264583px;stroke-linecap:butt;stroke-linejoin:miter;stroke-opacity:1"
       d="m 121.19078,140.40663 c -0.73468,0.55574 -3.28377,0.0467 -4.04804,-0.76287 -6.2645,-6.63593 -1.62481,-17.7797 -1.62481,-17.7797 0,0 18.62618,-9.66254 18.95134,2.75908 0.32517,12.42161 -1.30069,11.12092 -1.30069,11.12092 l 1.886,7.93423 -13.07699,-1.18359 z"
       id="path856"
       sodipodi:nodetypes="cscscccc"
       clip-path="url(#clipPath1427)"
       inkscape:original-d="m 121.19078,140.40663 c -0.73468,0.55574 -3.28377,0.0467 -4.04804,-0.76287 -6.2645,-6.63593 -1.62481,-17.7797 -1.62481,-17.7797 0,0 18.62618,-9.66254 18.95134,2.75908 0.32517,12.42161 -1.30069,11.12092 -1.30069,11.12092 l 1.886,7.93423 -13.07699,-1.18359 z"
       transform="matrix(0.73193166,0,0,0.73193166,9.7392003,-26.083904)" />
    <path
       style="fill:#ff8552;fill-opacity:1;stroke:none;stroke-width:0.264583px;stroke-linecap:butt;stroke-linejoin:miter;stroke-opacity:1"
       d="m 99.437625,164.87189 c 0,0 0.300323,14.75868 3.325295,19.82727 0.22969,0.48009 0.48644,0.63505 0.8676,0.75198 0.8139,0.24955 2.77368,0.83986 6.2373,1.82462 4.77076,1.3564 -1.63703,-21.56197 -1.63703,-21.56197 z"
       id="path866"
       sodipodi:nodetypes="cccscc"
       clip-path="url(#clipPath1423)"
       inkscape:original-d="m 99.437625,164.87189 c 0,0 0.300323,14.75868 3.325295,19.82727 0.22969,0.48009 0.48644,0.63505 0.8676,0.75198 0.8139,0.24955 2.77368,0.83986 6.2373,1.82462 4.77076,1.3564 -1.63703,-21.56197 -1.63703,-21.56197 z"
       transform="matrix(0.73193166,0,0,0.73193166,9.7392003,-26.083904)" />
    <path
       style="display:inline;fill:#462300;fill-opacity:1;stroke:none;stroke-width:0.264583px;stroke-linecap:butt;stroke-linejoin:miter;stroke-opacity:1"
       d="m 13.161573,214.88194 c 0,0 73.938968,-12.64454 88.718977,-8.90277 14.78001,3.74178 54.25572,-6.17392 63.42306,-4.86431 9.16735,1.30963 40.92565,-4.58366 47.70761,-1.12252 6.78197,3.46115 49.20433,-9.72861 63.04889,-2.05798 13.84457,7.67064 22.45065,1.87089 22.45065,1.87089 v 85.12534 H 12.63925 Z"
       id="path875"
       sodipodi:nodetypes="csszscccc"
       clip-path="url(#clipPath1419)"
       inkscape:original-d="m 13.161573,214.88194 c 0,0 73.938968,-12.64454 88.718977,-8.90277 14.78001,3.74178 54.25572,-6.17392 63.42306,-4.86431 9.16735,1.30963 40.92565,-4.58366 47.70761,-1.12252 6.78197,3.46115 49.20433,-9.72861 63.04889,-2.05798 13.84457,7.67064 22.45065,1.87089 22.45065,1.87089 v 85.12534 H 12.63925 Z"
       transform="matrix(0.73193166,0,0,0.73193166,9.7392003,-26.083904)" />
    <path
       style="fill:#56494e;fill-opacity:1;stroke:none;stroke-width:0.264583px;stroke-linecap:butt;stroke-linejoin:miter;stroke-opacity:1"
       d="m 109.26378,190.93569 c 0,0 -5.05851,4.50667 -2.11538,14.34777 2.94313,9.8411 21.69426,7.9695 21.69426,7.9695 0,0 25.73477,0.6098 25.94769,-9.44107 0.21431,-10.11641 -1.28762,-12.41633 -1.28762,-12.41633 0,0 -3.49497,-6.71402 -11.49661,-3.21905 -8.00164,3.49496 -32.74234,2.75918 -32.74234,2.75918 z"
       id="path860"
       sodipodi:nodetypes="cscscsc"
       clip-path="url(#clipPath1415)"
       inkscape:original-d="m 109.26378,190.93569 c 0,0 -5.05851,4.50667 -2.11538,14.34777 2.94313,9.8411 21.69426,7.9695 21.69426,7.9695 0,0 25.73477,0.6098 25.94769,-9.44107 0.21431,-10.11641 -1.28762,-12.41633 -1.28762,-12.41633 0,0 -3.49497,-6.71402 -11.49661,-3.21905 -8.00164,3.49496 -32.74234,2.75918 -32.74234,2.75918 z"
       transform="matrix(0.73193166,0,0,0.73193166,9.7392003,-26.083904)" />
    <path
       style="fill:#e17345;fill-opacity:1;stroke:none;stroke-width:0.264583px;stroke-linecap:butt;stroke-linejoin:miter;stroke-opacity:1"
       d="m 150.06835,188.94557 c 0,0 -4.11757,-0.39687 -6.92877,-6.61458 -2.8112,-6.21771 -0.23151,-7.11068 -0.23151,-7.11068 l 7.07761,6.61458 z"
       id="path864"
       sodipodi:nodetypes="csccc"
       clip-path="url(#clipPath1411)"
       inkscape:original-d="m 150.06835,188.94557 c 0,0 -4.11757,-0.39687 -6.92877,-6.61458 -2.8112,-6.21771 -0.23151,-7.11068 -0.23151,-7.11068 l 7.07761,6.61458 z"
       transform="matrix(0.73193166,0,0,0.73193166,9.7392003,-26.083904)" />
    <path
       style="fill:#ff8552;fill-opacity:1;stroke:none;stroke-width:0.264583px;stroke-linecap:butt;stroke-linejoin:miter;stroke-opacity:1"
       d="m 171.38385,165.76146 c 0,0 -8.02079,9.52007 -11.02102,11.194 -3.00022,1.67393 -2.72445,1.77662 -4.39096,1.04298 -1.66651,-0.73364 -2.91041,-4.49792 -2.91041,-4.49792 l 0.99218,-15.27969 c 0,0 -0.79866,-4.80134 -0.52916,-5.55625 0.2695,-0.75491 0.7696,-0.89984 2.05052,-1.2237 0.67296,-0.17015 2.8608,-1.12448 4.97747,0.99219 1.54736,2.442 1.47742,4.3681 0.56225,5.42397 0,0 -1.40561,1.53788 -2.03399,1.356 -0.63934,-0.18506 -0.82682,2.4474 0.33073,5.9862 l 4.66328,-6.15158 z"
       id="path885"
       sodipodi:nodetypes="czzcczsccsccc"
       clip-path="url(#clipPath1407)"
       inkscape:original-d="m 171.38385,165.76146 c 0,0 -8.02079,9.52007 -11.02102,11.194 -3.00022,1.67393 -2.72445,1.77662 -4.39096,1.04298 -1.66651,-0.73364 -2.91041,-4.49792 -2.91041,-4.49792 l 0.99218,-15.27969 c 0,0 -0.79866,-4.80134 -0.52916,-5.55625 0.2695,-0.75491 0.7696,-0.89984 2.05052,-1.2237 0.67296,-0.17015 2.8608,-1.12448 4.97747,0.99219 1.54736,2.442 1.47742,4.3681 0.56225,5.42397 0,0 -1.40561,1.53788 -2.03399,1.356 -0.63934,-0.18506 -0.82682,2.4474 0.33073,5.9862 l 4.66328,-6.15158 z"
       transform="matrix(0.73193166,0,0,0.73193166,9.7392003,-26.083904)" />
    <path
       style="fill:#ff8552;fill-opacity:1;stroke:none;stroke-width:0.264583px;stroke-linecap:butt;stroke-linejoin:miter;stroke-opacity:1"
       d="m 146.54609,168.73802 c 0,0 -2.01745,10.71562 0.33073,16.6026 2.34817,5.88698 5.13639,3.0256 5.55625,2.18282 0.49694,-0.9975 3.04271,-5.39089 1.19063,-18.05782 z"
       id="path862"
       sodipodi:nodetypes="csscc"
       clip-path="url(#clipPath1403)"
       inkscape:original-d="m 146.54609,168.73802 c 0,0 -2.01745,10.71562 0.33073,16.6026 2.34817,5.88698 5.13639,3.0256 5.55625,2.18282 0.49694,-0.9975 3.04271,-5.39089 1.19063,-18.05782 z"
       transform="matrix(0.73193166,0,0,0.73193166,9.7392003,-26.083904)" />
    <path
       style="fill:#511c29;fill-opacity:1;stroke:none;stroke-width:0.264583px;stroke-linecap:butt;stroke-linejoin:miter;stroke-opacity:1"
       d="m 119.46864,141.45035 c 0,0 7.93423,-5.65801 18.92508,2.27621 0,0 6.52492,2.37331 10.92583,4.61747 4.91012,2.50383 4.94263,13.20203 4.94263,13.20203 l -0.13007,9.49506 c 0,0 -4.09718,-1.75594 -7.93423,-0.65035 0,0 -3.37769,8.60356 0.024,25.55831 0.10635,0.48953 -0.31549,0.79341 -0.31549,0.79341 -3.83049,2.43829 -32.59181,19.87135 -37.68877,-3.00428 0,0 1.10559,-21.78661 -0.97552,-25.03834 0,0 -8.519538,-1.56083 -10.08037,-5.72305 0,0 3.1867,-6.30836 3.1867,-7.02374 0,-0.71538 0.90259,-8.49125 6.37339,-10.86079 5.0824,-2.20132 12.74679,-3.64194 12.74679,-3.64194 z"
       id="path850"
       sodipodi:nodetypes="ccsccccccccsscc"
       clip-path="url(#clipPath1399)"
       inkscape:original-d="m 119.46864,141.45035 c 0,0 7.93423,-5.65801 18.92508,2.27621 0,0 6.52492,2.37331 10.92583,4.61747 4.91012,2.50383 4.94263,13.20203 4.94263,13.20203 l -0.13007,9.49506 c 0,0 -4.09718,-1.75594 -7.93423,-0.65035 0,0 -3.37769,8.60356 0.024,25.55831 0.10635,0.48953 -0.31549,0.79341 -0.31549,0.79341 -3.83049,2.43829 -32.59181,19.87135 -37.68877,-3.00428 0,0 1.10559,-21.78661 -0.97552,-25.03834 0,0 -8.519538,-1.56083 -10.08037,-5.72305 0,0 3.1867,-6.30836 3.1867,-7.02374 0,-0.71538 0.90259,-8.49125 6.37339,-10.86079 5.0824,-2.20132 12.74679,-3.64194 12.74679,-3.64194 z"
       transform="matrix(0.73193166,0,0,0.73193166,9.7392003,-26.083904)" />
    <path
       style="fill:#56494e;fill-opacity:1;stroke:none;stroke-width:0.264583px;stroke-linecap:butt;stroke-linejoin:miter;stroke-opacity:1"
       d="m 115.51793,121.86406 c 0,0 -2.37831,-2.18058 0.82776,-3.90885 3.0299,-1.63331 2.91355,-2.22585 6.02422,-3.31102 3.11067,-1.08517 9.90733,-2.97628 13.74995,4.27674 3.95558,7.46623 -2.66725,18.02075 -2.66725,18.02075 0,0 0.002,-0.0199 -0.0661,-0.19103 -0.0784,-0.0436 -0.12741,-0.0623 -0.16737,-0.0993 -1.0314,-0.68499 -3.97572,-2.39853 -8.18198,-1.45117 0,0 -1.80174,0.92742 -2.85943,-4.72891 -1.05768,-5.65633 -3.67199,-1.23336 -4.08296,-0.63981 -0.41096,0.59355 -0.45447,1.65783 -1.51912,-0.83945 -1.1022,-2.58536 -1.65552,-3.63293 -1.05769,-7.1279 z"
       id="path858"
       sodipodi:nodetypes="cszsccccszscc"
       clip-path="url(#clipPath1395)"
       inkscape:original-d="m 115.51793,121.86406 c 0,0 -2.37831,-2.18058 0.82776,-3.90885 3.0299,-1.63331 2.91355,-2.22585 6.02422,-3.31102 3.11067,-1.08517 9.90733,-2.97628 13.74995,4.27674 3.95558,7.46623 -2.66725,18.02075 -2.66725,18.02075 0,0 0.002,-0.0199 -0.0661,-0.19103 -0.0784,-0.0436 -0.12741,-0.0623 -0.16737,-0.0993 -1.0314,-0.68499 -3.97572,-2.39853 -8.18198,-1.45117 0,0 -1.80174,0.92742 -2.85943,-4.72891 -1.05768,-5.65633 -3.67199,-1.23336 -4.08296,-0.63981 -0.41096,0.59355 -0.45447,1.65783 -1.51912,-0.83945 -1.1022,-2.58536 -1.65552,-3.63293 -1.05769,-7.1279 z"
       transform="matrix(0.73193166,0,0,0.73193166,9.7392003,-26.083904)" />
    <path
       style="fill:#56494e;fill-opacity:1;stroke:none;stroke-width:0.264583px;stroke-linecap:butt;stroke-linejoin:miter;stroke-opacity:1"
       d="m 157.69166,200.48802 c 0,0 -0.77328,11.1772 16.43724,11.1125 17.59479,-0.0662 18.45705,-2.60663 19.77761,-3.57187 1.32056,-0.96524 7.17682,-8.86355 7.17682,-8.86355 l 1.91823,-0.19844 c 0,0 -0.39688,-11.24479 -3.63802,-9.92187 -3.24115,1.32292 -41.67188,11.44323 -41.67188,11.44323 z"
       id="path872"
       sodipodi:nodetypes="cszccsc"
       clip-path="url(#clipPath1391)"
       inkscape:original-d="m 157.69166,200.48802 c 0,0 -0.77328,11.1772 16.43724,11.1125 17.59479,-0.0662 18.45705,-2.60663 19.77761,-3.57187 1.32056,-0.96524 7.17682,-8.86355 7.17682,-8.86355 l 1.91823,-0.19844 c 0,0 -0.39688,-11.24479 -3.63802,-9.92187 -3.24115,1.32292 -41.67188,11.44323 -41.67188,11.44323 z"
       transform="matrix(0.73193166,0,0,0.73193166,9.7392003,-26.083904)" />
    <path
       style="fill:#ff8552;fill-opacity:1;stroke:none;stroke-width:0.264583px;stroke-linecap:butt;stroke-linejoin:miter;stroke-opacity:1"
       d="m 191.7237,120.74922 c 0,0 -6.3491,2.18241 -6.08497,12.83209 0.0344,1.38668 0.0829,2.54725 -0.0244,3.52513 -0.30961,2.82033 -0.18685,2.22261 0.41536,2.84371 1.00705,1.03865 3.44505,1.7673 3.44505,1.7673 l 0.84336,5.50664 c 0,0 9.03767,14.18457 15.29234,4.78545 0,0 -2.57581,0.0928 -1.08752,-12.17725 1.48828,-12.27005 -12.79922,-19.08307 -12.79922,-19.08307 z"
       id="path883"
       sodipodi:nodetypes="cssscccsc"
       clip-path="url(#clipPath1387)"
       inkscape:original-d="m 191.7237,120.74922 c 0,0 -6.3491,2.18241 -6.08497,12.83209 0.0344,1.38668 0.0829,2.54725 -0.0244,3.52513 -0.30961,2.82033 -0.18685,2.22261 0.41536,2.84371 1.00705,1.03865 3.44505,1.7673 3.44505,1.7673 l 0.84336,5.50664 c 0,0 9.03767,14.18457 15.29234,4.78545 0,0 -2.57581,0.0928 -1.08752,-12.17725 1.48828,-12.27005 -12.79922,-19.08307 -12.79922,-19.08307 z"
       transform="matrix(0.73193166,0,0,0.73193166,9.7392003,-26.083904)" />
    <path
       style="fill:#e97646;fill-opacity:1;stroke:none;stroke-width:0.264583px;stroke-linecap:butt;stroke-linejoin:miter;stroke-opacity:1"
       d="m 229.72447,141.2875 c 0,0 -13.53776,0.89216 -17.57266,5.29086 -4.03489,4.39869 -0.68358,8.86435 3.4836,9.98882 4.16719,1.12448 21.72531,-13.0829 21.72531,-13.0829 0,0 -3.06497,-4.39356 -7.63625,-2.19678 z"
       id="path902"
       sodipodi:nodetypes="czscc"
       clip-path="url(#clipPath1383)"
       inkscape:original-d="m 229.72447,141.2875 c 0,0 -13.53776,0.89216 -17.57266,5.29086 -4.03489,4.39869 -0.68358,8.86435 3.4836,9.98882 4.16719,1.12448 21.72531,-13.0829 21.72531,-13.0829 0,0 -3.06497,-4.39356 -7.63625,-2.19678 z"
       transform="matrix(0.73193166,0,0,0.73193166,9.7392003,-26.083904)" />
    <path
       style="fill:#56494e;fill-opacity:1;stroke:none;stroke-width:0.264583px;stroke-linecap:butt;stroke-linejoin:miter;stroke-opacity:1"
       d="m 219.67031,157.09635 c 0,0 -5.15938,26.59063 2.4474,37.90156 7.60677,11.31094 42.33333,-9.32656 42.33333,-9.32656 0,0 4.69635,-15.14739 1.19062,-26.59062 -3.50573,-11.44323 -45.97135,-1.98438 -45.97135,-1.98438 z"
       id="path893"
       clip-path="url(#clipPath1379)"
       inkscape:original-d="m 219.67031,157.09635 c 0,0 -5.15938,26.59063 2.4474,37.90156 7.60677,11.31094 42.33333,-9.32656 42.33333,-9.32656 0,0 4.69635,-15.14739 1.19062,-26.59062 -3.50573,-11.44323 -45.97135,-1.98438 -45.97135,-1.98438 z"
       transform="matrix(0.73193166,0,0,0.73193166,9.7392003,-26.083904)" />
    <path
       style="fill:#ff8552;fill-opacity:1;stroke:none;stroke-width:0.264583px;stroke-linecap:butt;stroke-linejoin:miter;stroke-opacity:1"
       d="m 208.8845,176.70524 c 0,0 1.1693,11.45919 8.83993,12.81558 0,0 4.86431,0.37418 1.21608,-11.9269 -3.64822,-12.30108 -10.05601,-0.88868 -10.05601,-0.88868 z"
       id="path887"
       clip-path="url(#clipPath1375)"
       inkscape:original-d="m 208.8845,176.70524 c 0,0 1.1693,11.45919 8.83993,12.81558 0,0 4.86431,0.37418 1.21608,-11.9269 -3.64822,-12.30108 -10.05601,-0.88868 -10.05601,-0.88868 z"
       transform="matrix(0.73193166,0,0,0.73193166,9.7392003,-26.083904)" />
    <path
       style="fill:#62daa3;fill-opacity:1;stroke:none;stroke-width:0.264583px;stroke-linecap:butt;stroke-linejoin:miter;stroke-opacity:1"
       d="m 190.92398,146.0227 c 0,0 7.29646,10.85115 14.68646,5.98684 0,0 3.49701,0.538 11.45669,8.28595 0.5863,0.46307 0.78804,1.12205 0.99066,1.64678 0.94101,2.44801 2.94388,8.6631 2.80038,16.9145 0,0 -4.8643,4.20949 -9.9157,0.46772 l -0.28063,-2.61924 c 0,0 -10.85114,6.5481 -10.57051,12.44139 0.28063,5.8933 5.14494,11.41241 -15.24773,18.70887 -20.39266,7.29646 -27.68912,-5.98684 -27.68912,-5.98684 0,0 -2.24506,-7.10937 2.43215,-15.24772 4.67722,-8.13836 10.47697,-19.8314 10.47697,-19.8314 0,0 -4.95785,1.12253 -7.76418,-5.42557 0,0 6.51494,-13.37733 12.09483,-16.52648 0.51754,-0.36945 0.93694,-0.28235 1.56097,-0.22362 z"
       id="path868"
       sodipodi:nodetypes="cccccccsscsccccc"
       clip-path="url(#clipPath1371)"
       inkscape:original-d="m 190.92398,146.0227 c 0,0 7.29646,10.85115 14.68646,5.98684 0,0 3.49701,0.538 11.45669,8.28595 0.5863,0.46307 0.78804,1.12205 0.99066,1.64678 0.94101,2.44801 2.94388,8.6631 2.80038,16.9145 0,0 -4.8643,4.20949 -9.9157,0.46772 l -0.28063,-2.61924 c 0,0 -10.85114,6.5481 -10.57051,12.44139 0.28063,5.8933 5.14494,11.41241 -15.24773,18.70887 -20.39266,7.29646 -27.68912,-5.98684 -27.68912,-5.98684 0,0 -2.24506,-7.10937 2.43215,-15.24772 4.67722,-8.13836 10.47697,-19.8314 10.47697,-19.8314 0,0 -4.95785,1.12253 -7.76418,-5.42557 0,0 6.51494,-13.37733 12.09483,-16.52648 0.51754,-0.36945 0.93694,-0.28235 1.56097,-0.22362 z"
       transform="matrix(0.73193166,0,0,0.73193166,9.7392003,-26.083904)" />
    <path
       style="fill:#56494e;fill-opacity:1;stroke:none;stroke-width:0.264583px;stroke-linecap:butt;stroke-linejoin:miter;stroke-opacity:1"
       d="m 185.63873,133.58131 c 0,0 0.79513,3.36759 1.59025,4.11595 0.79513,0.74835 4.5369,-7.57709 4.5369,-7.57709 0,0 -3.04019,-1.59026 1.30962,-5.23848 0,0 -2.94664,-1.82412 -2.47892,-3.92887 0,0 -2.29183,-3.92886 1.33301,-3.1805 0,0 0.67819,-4.46674 3.55468,-1.66041 0,0 1.46495,-1.9442 3.38318,0.20554 0,0 7.34218,-1.2237 11.70781,6.77995 4.36562,8.00364 -6.28385,18.88463 -6.28385,18.88463 l -4.81418,-1.78187 c -0.24126,-0.0582 -0.28685,-0.27251 -0.31299,-0.53228 -0.17026,-1.67038 -1.14841,-7.59356 -6.41528,-6.48324 l -1.68847,8.25471 c -0.0653,0.3813 -0.18673,0.51588 -0.54131,0.61805 -1.10904,0.31749 -3.98788,0.91028 -5.04626,-1.10063 -0.67258,-1.2779 0.27025,-1.57254 0.48605,-3.11693 0.10262,-0.73445 -0.20702,-1.83503 -0.31055,-2.70451 -0.10697,-0.89839 -0.01,-1.55402 -0.01,-1.55402 z"
       id="path877"
       sodipodi:nodetypes="csccccccsccccccssscc"
       clip-path="url(#clipPath1367)"
       inkscape:original-d="m 185.63873,133.58131 c 0,0 0.79513,3.36759 1.59025,4.11595 0.79513,0.74835 4.5369,-7.57709 4.5369,-7.57709 0,0 -3.04019,-1.59026 1.30962,-5.23848 0,0 -2.94664,-1.82412 -2.47892,-3.92887 0,0 -2.29183,-3.92886 1.33301,-3.1805 0,0 0.67819,-4.46674 3.55468,-1.66041 0,0 1.46495,-1.9442 3.38318,0.20554 0,0 7.34218,-1.2237 11.70781,6.77995 4.36562,8.00364 -6.28385,18.88463 -6.28385,18.88463 l -4.81418,-1.78187 c -0.24126,-0.0582 -0.28685,-0.27251 -0.31299,-0.53228 -0.17026,-1.67038 -1.14841,-7.59356 -6.41528,-6.48324 l -1.68847,8.25471 c -0.0653,0.3813 -0.18673,0.51588 -0.54131,0.61805 -1.10904,0.31749 -3.98788,0.91028 -5.04626,-1.10063 -0.67258,-1.2779 0.27025,-1.57254 0.48605,-3.11693 0.10262,-0.73445 -0.20702,-1.83503 -0.31055,-2.70451 -0.10697,-0.89839 -0.01,-1.55402 -0.01,-1.55402 z"
       transform="matrix(0.73193166,0,0,0.73193166,9.7392003,-26.083904)" />
    <path
       style="fill:#e97646;fill-opacity:1;stroke:none;stroke-width:0.264583px;stroke-linecap:butt;stroke-linejoin:miter;stroke-opacity:1"
       d="m 270.99947,144.85937 c 1.30756,-1.52201 -20.28798,-5.92749 -25.51645,-4.56695 -5.03904,1.31125 18.56855,9.54152 18.56855,9.54152 z"
       id="path904"
       sodipodi:nodetypes="cscc"
       clip-path="url(#clipPath1363)"
       inkscape:original-d="m 270.99947,144.85937 c 1.30756,-1.52201 -20.28798,-5.92749 -25.51645,-4.56695 -5.03904,1.31125 18.56855,9.54152 18.56855,9.54152 z"
       transform="matrix(0.73193166,0,0,0.73193166,9.7392003,-26.083904)" />
    <path
       id="path897"
       style="fill:#ff8552;fill-opacity:1;stroke:none;stroke-width:0.999999px;stroke-linecap:butt;stroke-linejoin:miter;stroke-opacity:1"
       d="m 850.82617,472.87695 c 0,0 -11.69778,36.99974 10.96094,59.04493 4.72357,4.59567 15.63045,8.93865 21.89453,3.87695 l 3.20703,8.49609 c 0,0 42.43065,22.54305 60.63867,-5.91797 0,0 -9.90429,-4.3354 -19.27343,-36.68554 -9.30337,-32.12288 -63.10216,-17.56401 -63.85938,-17.35743 z"
       transform="matrix(0.19365692,0,0,0.19365692,9.7392003,-26.083904)"
       sodipodi:nodetypes="cscccscc"
       clip-path="url(#clipPath1359)"
       inkscape:original-d="m 850.82617,472.87695 c 0,0 -11.69778,36.99974 10.96094,59.04493 4.72357,4.59567 15.63045,8.93865 21.89453,3.87695 l 3.20703,8.49609 c 0,0 42.43065,22.54305 60.63867,-5.91797 0,0 -9.90429,-4.3354 -19.27343,-36.68554 -9.30337,-32.12288 -63.10216,-17.56401 -63.85938,-17.35743 z" />
    <path
       style="fill:#247ba0;fill-opacity:1;stroke:none;stroke-width:0.264583px;stroke-linecap:butt;stroke-linejoin:miter;stroke-opacity:1"
       d="m 234.38776,142.97421 c 0,0 11.01328,7.63985 15.24661,-1.55442 0.6338,0.68918 18.13892,2.14279 20.43907,1.85208 2.30015,-0.29071 6.59633,5.57418 1.71979,14.51901 -0.6993,1.28271 -3.26687,0.2 -3.89966,1.50574 -4.08752,8.4345 -4.19575,10.9822 -3.57482,18.30494 0.62092,7.32273 4.3039,18.84099 2.05052,24.20938 -2.25339,5.36838 -16.93333,8.59896 -16.93333,8.59896 0,0 -35.12344,2.64583 -27.8474,-22.09271 0,0 6.28386,-17.99167 -2.71198,-28.11198 0,0 -4.49791,-0.0661 -6.87916,-6.68073 -2.38125,-6.61458 3.41749,-7.8129 5.29166,-8.26823 1.87417,-0.45533 15.44505,-0.56225 17.0987,-2.28204 z"
       id="path889"
       sodipodi:nodetypes="cczsszzcccszc"
       clip-path="url(#clipPath1355)"
       inkscape:original-d="m 234.38776,142.97421 c 0,0 11.01328,7.63985 15.24661,-1.55442 0.6338,0.68918 18.13892,2.14279 20.43907,1.85208 2.30015,-0.29071 6.59633,5.57418 1.71979,14.51901 -0.6993,1.28271 -3.26687,0.2 -3.89966,1.50574 -4.08752,8.4345 -4.19575,10.9822 -3.57482,18.30494 0.62092,7.32273 4.3039,18.84099 2.05052,24.20938 -2.25339,5.36838 -16.93333,8.59896 -16.93333,8.59896 0,0 -35.12344,2.64583 -27.8474,-22.09271 0,0 6.28386,-17.99167 -2.71198,-28.11198 0,0 -4.49791,-0.0661 -6.87916,-6.68073 -2.38125,-6.61458 3.41749,-7.8129 5.29166,-8.26823 1.87417,-0.45533 15.44505,-0.56225 17.0987,-2.28204 z"
       transform="matrix(0.73193166,0,0,0.73193166,9.7392003,-26.083904)" />
    <path
       style="fill:#56494e;fill-opacity:1;stroke:none;stroke-width:0.264583px;stroke-linecap:butt;stroke-linejoin:miter;stroke-opacity:1"
       d="m 228.93073,132.02708 c 0,0 -1.25677,-0.33073 -1.7198,-3.83646 0,0 -4.82864,-0.79375 -5.95312,-6.87916 -1.12448,-6.08542 4.36563,-8.46667 4.36563,-8.46667 0,0 10.51378,-4.01928 19.31458,2.51354 6.05389,4.49379 1.42214,19.64531 1.42214,19.64531 l -8.54785,0.83394 c -0.54282,0.12799 -1.06505,-0.26954 -1.17663,-0.6379 -0.934,-2.79664 -4.51562,-12.22802 -7.70495,-3.1726 z"
       id="path895"
       sodipodi:nodetypes="ccscscccc"
       clip-path="url(#clipPath1351)"
       inkscape:original-d="m 228.93073,132.02708 c 0,0 -1.25677,-0.33073 -1.7198,-3.83646 0,0 -4.82864,-0.79375 -5.95312,-6.87916 -1.12448,-6.08542 4.36563,-8.46667 4.36563,-8.46667 0,0 10.51378,-4.01928 19.31458,2.51354 6.05389,4.49379 1.42214,19.64531 1.42214,19.64531 l -8.54785,0.83394 c -0.54282,0.12799 -1.06505,-0.26954 -1.17663,-0.6379 -0.934,-2.79664 -4.51562,-12.22802 -7.70495,-3.1726 z"
       transform="matrix(0.73193166,0,0,0.73193166,9.7392003,-26.083904)" />
    <path
       style="fill:#e97646;fill-opacity:1;stroke:none;stroke-width:0.264583px;stroke-linecap:butt;stroke-linejoin:miter;stroke-opacity:1"
       d="m 90.200124,162.13571 -9.331047,6.85213 -4.677217,-6.31425 z"
       id="path918"
       sodipodi:nodetypes="cccc"
       clip-path="url(#clipPath1347)"
       inkscape:original-d="m 90.200124,162.13571 -9.331047,6.85213 -4.677217,-6.31425 z"
       transform="matrix(0.73193166,0,0,0.73193166,9.7392003,-26.083904)" />
    <path
       style="fill:#56494e;fill-opacity:1;stroke:none;stroke-width:0.264583px;stroke-linecap:butt;stroke-linejoin:miter;stroke-opacity:1"
       d="m 39.290625,184.28229 c 0,0 -2.38125,-1.91823 -0.727605,17.66094 1.653646,19.57916 21.563542,16.80104 21.563542,16.80104 0,0 17.760167,0.0661 21.828124,-11.84011 3.163435,-9.25883 1.881456,-27.85855 1.625355,-35.81561 -0.01967,-5.06124 -3.462547,-7.21469 -5.671534,-4.3326 l -22.742882,-6.22001 z"
       id="path908"
       sodipodi:nodetypes="cscscccc"
       clip-path="url(#clipPath1343)"
       inkscape:original-d="m 39.290625,184.28229 c 0,0 -2.38125,-1.91823 -0.727605,17.66094 1.653646,19.57916 21.563542,16.80104 21.563542,16.80104 0,0 17.760167,0.0661 21.828124,-11.84011 3.163435,-9.25883 1.881456,-27.85855 1.625355,-35.81561 -0.01967,-5.06124 -3.462547,-7.21469 -5.671534,-4.3326 l -22.742882,-6.22001 z"
       transform="matrix(0.73193166,0,0,0.73193166,9.7392003,-26.083904)" />
    <path
       style="fill:#ff8552;fill-opacity:1;stroke:none;stroke-width:0.264583px;stroke-linecap:butt;stroke-linejoin:miter;stroke-opacity:1"
       d="m 33.301783,174.086 c 0,0 1.917658,11.03824 7.99804,13.98488 6.080381,2.94665 -1.216076,-17.6331 -7.99804,-13.98488 z"
       id="path910"
       clip-path="url(#clipPath1339)"
       inkscape:original-d="m 33.301783,174.086 c 0,0 1.917658,11.03824 7.99804,13.98488 6.080381,2.94665 -1.216076,-17.6331 -7.99804,-13.98488 z"
       transform="matrix(0.73193166,0,0,0.73193166,9.7392003,-26.083904)" />
    <path
       style="fill:#ff8552;fill-opacity:1;stroke:none;stroke-width:0.264583px;stroke-linecap:butt;stroke-linejoin:miter;stroke-opacity:1"
       d="m 82.351561,153.92135 c 0,0 6.68073,-0.82682 8.367448,5.02709 1.686719,5.8539 -7.309114,4.00182 -7.309114,4.00182 z"
       id="path916"
       clip-path="url(#clipPath1335)"
       inkscape:original-d="m 82.351561,153.92135 c 0,0 6.68073,-0.82682 8.367448,5.02709 1.686719,5.8539 -7.309114,4.00182 -7.309114,4.00182 z"
       transform="matrix(0.73193166,0,0,0.73193166,9.7392003,-26.083904)" />
    <path
       style="fill:#ff8552;fill-opacity:1;stroke:none;stroke-width:0.264583px;stroke-linecap:butt;stroke-linejoin:miter;stroke-opacity:1"
       d="m 45.012239,134.04453 c 0,0 -1.485697,10.75555 2.291517,14.12125 3.717078,3.31212 -3.147896,7.30531 1.544941,6.68161 l 12.633165,-4.67492 1.098257,-11.59549 z"
       id="path922"
       sodipodi:nodetypes="cscccc"
       clip-path="url(#clipPath1331)"
       inkscape:original-d="m 45.012239,134.04453 c 0,0 -1.485697,10.75555 2.291517,14.12125 3.717078,3.31212 -3.147896,7.30531 1.544941,6.68161 l 12.633165,-4.67492 1.098257,-11.59549 z"
       transform="matrix(0.73193166,0,0,0.73193166,9.7392003,-26.083904)" />
    <path
       style="fill:#b2aa8e;fill-opacity:1;stroke:none;stroke-width:0.264583px;stroke-linecap:butt;stroke-linejoin:miter;stroke-opacity:1"
       d="m 48.36242,150.41929 c 0,0 8.930161,0.95198 13.326745,-1.94789 0,0 5.054718,1.10599 12.070543,0.21732 0,0 4.162722,-0.28063 9.214117,4.95785 5.051394,5.23848 0.795126,9.77538 0.795126,9.77538 l -3.741773,1.87089 c 0,0 -3.95947,21.10612 -0.586032,33.01237 3.373437,11.90625 -10.64948,15.34583 -10.64948,15.34583 0,0 -25.003124,7.07761 -29.236458,-10.2526 0,0 0.06615,-21.23282 -2.447396,-25.53229 l -3.836458,-0.52917 c 0,0 -3.241146,-16.80104 1.389063,-19.51302 4.630208,-2.71198 9.941506,-4.29215 13.702003,-7.40467 z"
       id="path906"
       sodipodi:nodetypes="cccsccsccccsc"
       clip-path="url(#clipPath1327)"
       inkscape:original-d="m 48.36242,150.41929 c 0,0 8.930161,0.95198 13.326745,-1.94789 0,0 5.054718,1.10599 12.070543,0.21732 0,0 4.162722,-0.28063 9.214117,4.95785 5.051394,5.23848 0.795126,9.77538 0.795126,9.77538 l -3.741773,1.87089 c 0,0 -3.95947,21.10612 -0.586032,33.01237 3.373437,11.90625 -10.64948,15.34583 -10.64948,15.34583 0,0 -25.003124,7.07761 -29.236458,-10.2526 0,0 0.06615,-21.23282 -2.447396,-25.53229 l -3.836458,-0.52917 c 0,0 -3.241146,-16.80104 1.389063,-19.51302 4.630208,-2.71198 9.941506,-4.29215 13.702003,-7.40467 z"
       transform="matrix(0.73193166,0,0,0.73193166,9.7392003,-26.083904)" />
    <path
       style="fill:#ff8552;fill-opacity:1;stroke:none;stroke-width:0.211833px;stroke-linecap:butt;stroke-linejoin:miter;stroke-opacity:1"
       d="m 84.351838,113.76129 c 0,0 2.842759,-0.98557 1.690289,3.32174 -1.152471,4.30733 -2.84276,0.54755 -2.84276,0.54755 z"
       id="path2203"
       clip-path="url(#clipPath1323)"
       transform="matrix(0.73193166,0,0,0.73193166,-6.2420037,-8.755582)" />
    <path
       style="fill:#56494e;fill-opacity:1;stroke:none;stroke-width:0.264583px;stroke-linecap:butt;stroke-linejoin:miter;stroke-opacity:1"
       d="m 44.106152,130.68143 c 0,0 1.683799,-6.82874 9.728613,-6.31424 6.257676,0.40021 8.638293,4.53596 9.387176,6.35371 0.171741,0.47105 0.295501,1.00754 0.26905,1.31532 l -0.525534,6.8395 c -0.05727,0.71202 -0.29272,1.90485 -0.534226,2.43068 l -1.939937,3.66705 c -0.06207,0.12278 -0.182398,0.2183 -0.332245,0.23704 l -8.599002,1.14069 c -0.263185,0.022 -0.404085,-0.12533 -0.495321,-0.30847 -0.581515,-1.33014 -2.759854,-5.98809 -5.040913,-6.70843 -2.666014,-0.8419 -1.917661,-8.65285 -1.917661,-8.65285 z"
       id="path920"
       sodipodi:nodetypes="csccccccccsc"
       clip-path="url(#clipPath1319)"
       inkscape:original-d="m 44.106152,130.68143 c 0,0 1.683799,-6.82874 9.728613,-6.31424 6.257676,0.40021 8.638293,4.53596 9.387176,6.35371 0.171741,0.47105 0.295501,1.00754 0.26905,1.31532 l -0.525534,6.8395 c -0.05727,0.71202 -0.29272,1.90485 -0.534226,2.43068 l -1.939937,3.66705 c -0.06207,0.12278 -0.182398,0.2183 -0.332245,0.23704 l -8.599002,1.14069 c -0.263185,0.022 -0.404085,-0.12533 -0.495321,-0.30847 -0.581515,-1.33014 -2.759854,-5.98809 -5.040913,-6.70843 -2.666014,-0.8419 -1.917661,-8.65285 -1.917661,-8.65285 z"
       transform="matrix(0.73193166,0,0,0.73193166,9.7392003,-26.083904)" />
    <path
       style="fill:#ff8552;fill-opacity:1;stroke:none;stroke-width:0.211833px;stroke-linecap:butt;stroke-linejoin:miter;stroke-opacity:1"
       d="m 66.806567,114.25239 c -0.131137,-0.13464 -2.842759,-0.98557 -1.690289,3.32174 1.152471,4.30733 2.84276,0.54755 2.84276,0.54755 0,0 -1.021334,-3.73465 -1.152471,-3.86929 z"
       id="path2205"
       sodipodi:nodetypes="zscz"
       clip-path="url(#clipPath1315)"
       transform="matrix(0.73193166,0,0,0.73193166,-6.2420037,-8.755582)" />
    <path
       style="fill:#ff8552;fill-opacity:1;stroke:none;stroke-width:0.264583px;stroke-linecap:butt;stroke-linejoin:miter;stroke-opacity:1"
       d="m 141.15311,105.1521 c 0,0 0.19874,-2.25675 2.04628,-1.29792 1.8475,0.95883 1.20439,5.34371 -1.6721,6.86381 -2.87649,1.52009 -0.37418,-5.56589 -0.37418,-5.56589 z"
       id="path2207"
       sodipodi:nodetypes="cssc"
       clip-path="url(#clipPath1311)"
       transform="matrix(0.73193166,0,0,0.73193166,-6.2420037,-8.755582)" />
    <path
       style="fill:#ff8552;fill-opacity:1;stroke:none;stroke-width:0.264583px;stroke-linecap:butt;stroke-linejoin:miter;stroke-opacity:1"
       d="m 252.41865,106.10334 c 0,0 0.46302,-1.78594 1.91823,-1.05833 1.45521,0.7276 0.66146,4.06797 0.66146,4.06797 z"
       id="path2209"
       clip-path="url(#clipPath1307)"
       transform="matrix(0.73193166,0,0,0.73193166,-6.2420037,-8.755582)" />
  </g>
</svg>
